<?xml version="1.0" encoding="UTF-8" standalone="no"?>
<svg
   xmlns:dc="http://purl.org/dc/elements/1.1/"
   xmlns:cc="http://creativecommons.org/ns#"
   xmlns:rdf="http://www.w3.org/1999/02/22-rdf-syntax-ns#"
   xmlns:svg="http://www.w3.org/2000/svg"
   xmlns="http://www.w3.org/2000/svg"
   xmlns:sodipodi="http://sodipodi.sourceforge.net/DTD/sodipodi-0.dtd"
   xmlns:inkscape="http://www.inkscape.org/namespaces/inkscape"
   version="1.1"
   viewBox="0 0 960 540"
   stroke-miterlimit="10"
   id="svg101"
   sodipodi:docname="modele.svg"
   width="960"
   height="540"
   style="fill:none;stroke:none;stroke-linecap:square;stroke-miterlimit:10"
   inkscape:version="0.92.5 (2060ec1f9f, 2020-04-08)">
  <metadata
     id="metadata107">
    <rdf:RDF>
      <cc:Work
         rdf:about="">
        <dc:format>image/svg+xml</dc:format>
        <dc:type
           rdf:resource="http://purl.org/dc/dcmitype/StillImage" />
      </cc:Work>
    </rdf:RDF>
  </metadata>
  <defs
     id="defs105" />
  <sodipodi:namedview
     pagecolor="#ffffff"
     bordercolor="#666666"
     borderopacity="1"
     objecttolerance="10"
     gridtolerance="10"
     guidetolerance="10"
     inkscape:pageopacity="0"
     inkscape:pageshadow="2"
     inkscape:window-width="640"
     inkscape:window-height="480"
     id="namedview103"
     showgrid="false"
     inkscape:zoom="0.41145833"
     inkscape:cx="480"
     inkscape:cy="270"
     inkscape:window-x="0"
     inkscape:window-y="27"
     inkscape:window-maximized="0"
     inkscape:current-layer="svg101" />
  <clipPath
     id="p.0">
    <path
       d="M 0,0 H 960 V 540 H 0 Z"
       id="path2"
       inkscape:connector-curvature="0"
       style="clip-rule:nonzero" />
  </clipPath>
  <g
     clip-path="url(#p.0)"
     id="g99">
    <path
       d="M 0,0 H 960 V 540 H 0 Z"
       id="path5"
       inkscape:connector-curvature="0"
       style="fill:#ffffff;fill-rule:evenodd" />
    <path
       d="m 149.81627,435.09186 h 220.12337 v 59.62991 H 149.81627 Z"
       id="path7"
       inkscape:connector-curvature="0"
       style="fill:#a4c2f4;fill-rule:evenodd" />
    <path
       d="m 149.81627,435.09186 h 220.12337 v 59.62991 H 149.81627 Z"
       id="path9"
       inkscape:connector-curvature="0"
       style="fill-rule:evenodd;stroke:#595959;stroke-width:1;stroke-linecap:butt;stroke-linejoin:round" />
    <path
       d="m 216.4132,467.1393 1.76562,0.45312 q -0.5625,2.17188 -2,3.32813 -1.4375,1.14062 -3.53125,1.14062 -2.15625,0 -3.51562,-0.875 -1.34375,-0.89062 -2.0625,-2.54687 -0.70313,-1.67188 -0.70313,-3.59375 0,-2.07813 0.79688,-3.625 0.79687,-1.5625 2.26562,-2.35938 1.48438,-0.8125 3.25,-0.8125 2,0 3.35938,1.01563 1.375,1.01562 1.90625,2.875 l -1.73438,0.40625 q -0.46875,-1.45313 -1.35937,-2.10938 -0.875,-0.67187 -2.20313,-0.67187 -1.54687,0 -2.57812,0.73437 -1.03125,0.73438 -1.45313,1.98438 -0.42187,1.23437 -0.42187,2.5625 0,1.70312 0.5,2.96875 0.5,1.26562 1.54687,1.90625 1.04688,0.625 2.26563,0.625 1.48437,0 2.51562,-0.85938 1.03125,-0.85937 1.39063,-2.54687 z m 10.05107,3.5 q -0.92187,0.76562 -1.76562,1.09375 -0.82813,0.3125 -1.79688,0.3125 -1.59375,0 -2.45312,-0.78125 -0.85938,-0.78125 -0.85938,-1.98438 0,-0.71875 0.32813,-1.29687 0.32812,-0.59375 0.84375,-0.9375 0.53125,-0.35938 1.1875,-0.54688 0.46875,-0.125 1.45312,-0.25 1.98438,-0.23437 2.92188,-0.5625 0.0156,-0.34375 0.0156,-0.42187 0,-1 -0.46875,-1.42188 -0.625,-0.54687 -1.875,-0.54687 -1.15625,0 -1.70312,0.40625 -0.54688,0.40625 -0.8125,1.42187 l -1.60938,-0.21875 q 0.21875,-1.01562 0.71875,-1.64062 0.5,-0.64063 1.45313,-0.98438 0.95312,-0.34375 2.1875,-0.34375 1.25,0 2.01562,0.29688 0.78125,0.28125 1.14063,0.73437 0.375,0.4375 0.51562,1.10938 0.0781,0.42187 0.0781,1.51562 v 2.1875 q 0,2.28125 0.10937,2.89063 0.10938,0.59375 0.40625,1.15625 h -1.70312 q -0.26563,-0.51563 -0.32813,-1.1875 z m -0.14062,-3.67188 q -0.89063,0.375 -2.67188,0.625 -1.01562,0.14063 -1.4375,0.32813 -0.42187,0.1875 -0.65625,0.53125 -0.21875,0.34375 -0.21875,0.78125 0,0.65625 0.5,1.09375 0.5,0.4375 1.45313,0.4375 0.9375,0 1.67187,-0.40625 0.75,-0.42188 1.09375,-1.14063 0.26563,-0.5625 0.26563,-1.64062 z m 4.20384,4.85938 v -9.67188 h 1.46875 v 1.35938 q 0.45312,-0.71875 1.20312,-1.14063 0.76563,-0.4375 1.71875,-0.4375 1.07813,0 1.76563,0.45313 0.6875,0.4375 0.96875,1.23437 1.15625,-1.6875 2.98437,-1.6875 1.45313,0 2.21875,0.79688 0.78125,0.79687 0.78125,2.45312 v 6.64063 h -1.64062 v -6.09375 q 0,-0.98438 -0.15625,-1.40625 -0.15625,-0.4375 -0.57813,-0.70313 -0.42187,-0.26562 -0.98437,-0.26562 -1.01563,0 -1.6875,0.6875 -0.67188,0.67187 -0.67188,2.15625 v 5.625 h -1.64062 v -6.28125 q 0,-1.09375 -0.40625,-1.64063 -0.40625,-0.54687 -1.3125,-0.54687 -0.6875,0 -1.28125,0.35937 -0.59375,0.35938 -0.85938,1.0625 -0.25,0.70313 -0.25,2.03125 v 5.01563 z m 22.1658,-3.10938 1.6875,0.20313 q -0.40625,1.48437 -1.48438,2.3125 -1.07812,0.8125 -2.76562,0.8125 -2.125,0 -3.375,-1.29688 -1.23438,-1.3125 -1.23438,-3.67187 0,-2.45313 1.25,-3.79688 1.26563,-1.34375 3.26563,-1.34375 1.9375,0 3.15625,1.32813 1.23437,1.3125 1.23437,3.70312 0,0.15625 0,0.4375 h -7.21875 q 0.0937,1.59375 0.90625,2.45313 0.8125,0.84375 2.01563,0.84375 0.90625,0 1.54687,-0.46875 0.64063,-0.48438 1.01563,-1.51563 z m -5.39063,-2.65625 h 5.40625 q -0.10937,-1.21875 -0.625,-1.82812 -0.78125,-0.95313 -2.03125,-0.95313 -1.125,0 -1.90625,0.76563 -0.76562,0.75 -0.84375,2.01562 z m 1.76563,-5.10937 1.21875,-2.54688 h 2.15625 l -2.01563,2.54688 z m 7.36009,10.875 v -9.67188 h 1.46875 v 1.46875 q 0.5625,-1.03125 1.03125,-1.35937 0.48438,-0.32813 1.0625,-0.32813 0.82813,0 1.6875,0.53125 l -0.5625,1.51563 q -0.60937,-0.35938 -1.20312,-0.35938 -0.54688,0 -0.96875,0.32813 -0.42188,0.32812 -0.60938,0.89062 -0.28125,0.875 -0.28125,1.92188 v 5.0625 z m 12.5408,-1.1875 q -0.92187,0.76562 -1.76562,1.09375 -0.82813,0.3125 -1.79688,0.3125 -1.59375,0 -2.45312,-0.78125 -0.85938,-0.78125 -0.85938,-1.98438 0,-0.71875 0.32813,-1.29687 0.32812,-0.59375 0.84375,-0.9375 0.53125,-0.35938 1.1875,-0.54688 0.46875,-0.125 1.45312,-0.25 1.98438,-0.23437 2.92188,-0.5625 0.0156,-0.34375 0.0156,-0.42187 0,-1 -0.46875,-1.42188 -0.625,-0.54687 -1.875,-0.54687 -1.15625,0 -1.70312,0.40625 -0.54688,0.40625 -0.8125,1.42187 l -1.60938,-0.21875 q 0.21875,-1.01562 0.71875,-1.64062 0.5,-0.64063 1.45313,-0.98438 0.95312,-0.34375 2.1875,-0.34375 1.25,0 2.01562,0.29688 0.78125,0.28125 1.14063,0.73437 0.375,0.4375 0.51562,1.10938 0.0781,0.42187 0.0781,1.51562 v 2.1875 q 0,2.28125 0.10937,2.89063 0.10938,0.59375 0.40625,1.15625 h -1.70312 q -0.26563,-0.51563 -0.32813,-1.1875 z m -0.14062,-3.67188 q -0.89063,0.375 -2.67188,0.625 -1.01562,0.14063 -1.4375,0.32813 -0.42187,0.1875 -0.65625,0.53125 -0.21875,0.34375 -0.21875,0.78125 0,0.65625 0.5,1.09375 0.5,0.4375 1.45313,0.4375 0.9375,0 1.67187,-0.40625 0.75,-0.42188 1.09375,-1.14063 0.26563,-0.5625 0.26563,-1.64062 z m 7.09155,4.85938 5.12503,-13.35938 h 1.90625 l 5.46875,13.35938 h -2.01562 l -1.54688,-4.04688 h -5.59375 l -1.46878,4.04688 z m 3.85941,-5.48438 h 4.53125 l -1.40625,-3.70312 q -0.625,-1.6875 -0.9375,-2.76563 -0.26563,1.28125 -0.71875,2.54688 z m 10.0842,5.48438 v -13.35938 h 9.65625 v 1.57813 h -7.875 v 4.09375 h 7.375 v 1.5625 h -7.375 v 4.54687 h 8.1875 v 1.57813 z m 12.44357,0 v -13.35938 h 5.92187 q 1.78125,0 2.70313,0.35938 0.9375,0.35937 1.48437,1.28125 0.5625,0.90625 0.5625,2.01562 0,1.40625 -0.92187,2.39063 -0.92188,0.96875 -2.84375,1.23437 0.70312,0.34375 1.07812,0.67188 0.76563,0.70312 1.45313,1.76562 l 2.32812,3.64063 h -2.21875 l -1.76562,-2.78125 q -0.78125,-1.20313 -1.28125,-1.82813 -0.5,-0.64062 -0.90625,-0.89062 -0.39063,-0.26563 -0.79688,-0.35938 -0.29687,-0.0781 -0.98437,-0.0781 h -2.04688 v 5.9375 z m 1.76562,-7.45313 h 3.79688 q 1.21875,0 1.89062,-0.25 0.6875,-0.26562 1.04688,-0.8125 0.35937,-0.54687 0.35937,-1.1875 0,-0.95312 -0.6875,-1.5625 -0.6875,-0.60937 -2.1875,-0.60937 h -4.21875 z"
       id="path11"
       inkscape:connector-curvature="0"
       style="fill:#000000;fill-rule:nonzero" />
    <path
       d="m 590.063,435.09186 h 220.12335 v 59.62991 H 590.063 Z"
       id="path13"
       inkscape:connector-curvature="0"
       style="fill:#a4c2f4;fill-rule:evenodd" />
    <path
       d="m 590.063,435.09186 h 220.12335 v 59.62991 H 590.063 Z"
       id="path15"
       inkscape:connector-curvature="0"
       style="fill-rule:evenodd;stroke:#595959;stroke-width:1;stroke-linecap:butt;stroke-linejoin:round" />
    <path
       d="m 636.4365,467.1393 1.76563,0.45312 q -0.5625,2.17188 -2,3.32813 -1.4375,1.14062 -3.53125,1.14062 -2.15625,0 -3.51563,-0.875 -1.34375,-0.89062 -2.0625,-2.54687 -0.70312,-1.67188 -0.70312,-3.59375 0,-2.07813 0.79687,-3.625 0.79688,-1.5625 2.26563,-2.35938 1.48437,-0.8125 3.25,-0.8125 2,0 3.35937,1.01563 1.375,1.01562 1.90625,2.875 l -1.73437,0.40625 q -0.46875,-1.45313 -1.35938,-2.10938 -0.875,-0.67187 -2.20312,-0.67187 -1.54688,0 -2.57813,0.73437 -1.03125,0.73438 -1.45312,1.98438 -0.42188,1.23437 -0.42188,2.5625 0,1.70312 0.5,2.96875 0.5,1.26562 1.54688,1.90625 1.04687,0.625 2.26562,0.625 1.48438,0 2.51563,-0.85938 1.03125,-0.85937 1.39062,-2.54687 z m 10.05109,3.5 q -0.92188,0.76562 -1.76563,1.09375 -0.82812,0.3125 -1.79687,0.3125 -1.59375,0 -2.45313,-0.78125 -0.85937,-0.78125 -0.85937,-1.98438 0,-0.71875 0.32812,-1.29687 0.32813,-0.59375 0.84375,-0.9375 0.53125,-0.35938 1.1875,-0.54688 0.46875,-0.125 1.45313,-0.25 1.98437,-0.23437 2.92187,-0.5625 0.0156,-0.34375 0.0156,-0.42187 0,-1 -0.46875,-1.42188 -0.625,-0.54687 -1.875,-0.54687 -1.15625,0 -1.70313,0.40625 -0.54687,0.40625 -0.8125,1.42187 l -1.60937,-0.21875 q 0.21875,-1.01562 0.71875,-1.64062 0.5,-0.64063 1.45312,-0.98438 0.95313,-0.34375 2.1875,-0.34375 1.25,0 2.01563,0.29688 0.78125,0.28125 1.14062,0.73437 0.375,0.4375 0.51563,1.10938 0.0781,0.42187 0.0781,1.51562 v 2.1875 q 0,2.28125 0.10938,2.89063 0.10937,0.59375 0.40625,1.15625 h -1.70313 q -0.26562,-0.51563 -0.32812,-1.1875 z m -0.14063,-3.67188 q -0.89062,0.375 -2.67187,0.625 -1.01563,0.14063 -1.4375,0.32813 -0.42188,0.1875 -0.65625,0.53125 -0.21875,0.34375 -0.21875,0.78125 0,0.65625 0.5,1.09375 0.5,0.4375 1.45312,0.4375 0.9375,0 1.67188,-0.40625 0.75,-0.42188 1.09375,-1.14063 0.26562,-0.5625 0.26562,-1.64062 z m 4.20386,4.85938 v -9.67188 h 1.46875 v 1.35938 q 0.45312,-0.71875 1.20312,-1.14063 0.76563,-0.4375 1.71875,-0.4375 1.07813,0 1.76563,0.45313 0.6875,0.4375 0.96875,1.23437 1.15625,-1.6875 2.98437,-1.6875 1.45313,0 2.21875,0.79688 0.78125,0.79687 0.78125,2.45312 v 6.64063 h -1.64062 v -6.09375 q 0,-0.98438 -0.15625,-1.40625 -0.15625,-0.4375 -0.57813,-0.70313 -0.42187,-0.26562 -0.98437,-0.26562 -1.01563,0 -1.6875,0.6875 -0.67188,0.67187 -0.67188,2.15625 v 5.625 h -1.64062 v -6.28125 q 0,-1.09375 -0.40625,-1.64063 -0.40625,-0.54687 -1.3125,-0.54687 -0.6875,0 -1.28125,0.35937 -0.59375,0.35938 -0.85938,1.0625 -0.25,0.70313 -0.25,2.03125 v 5.01563 z m 22.16577,-3.10938 1.6875,0.20313 q -0.40625,1.48437 -1.48438,2.3125 -1.07812,0.8125 -2.76562,0.8125 -2.125,0 -3.375,-1.29688 -1.23438,-1.3125 -1.23438,-3.67187 0,-2.45313 1.25,-3.79688 1.26563,-1.34375 3.26563,-1.34375 1.9375,0 3.15625,1.32813 1.23437,1.3125 1.23437,3.70312 0,0.15625 0,0.4375 h -7.21875 q 0.0937,1.59375 0.90625,2.45313 0.8125,0.84375 2.01563,0.84375 0.90625,0 1.54687,-0.46875 0.64063,-0.48438 1.01563,-1.51563 z m -5.39063,-2.65625 h 5.40625 q -0.10937,-1.21875 -0.625,-1.82812 -0.78125,-0.95313 -2.03125,-0.95313 -1.125,0 -1.90625,0.76563 -0.76562,0.75 -0.84375,2.01562 z m 1.76563,-5.10937 1.21875,-2.54688 h 2.15625 l -2.01563,2.54688 z m 7.36011,10.875 v -9.67188 h 1.46875 v 1.46875 q 0.5625,-1.03125 1.03125,-1.35937 0.48437,-0.32813 1.0625,-0.32813 0.82812,0 1.6875,0.53125 l -0.5625,1.51563 q -0.60938,-0.35938 -1.20313,-0.35938 -0.54687,0 -0.96875,0.32813 -0.42187,0.32812 -0.60937,0.89062 -0.28125,0.875 -0.28125,1.92188 v 5.0625 z m 12.54077,-1.1875 q -0.92188,0.76562 -1.76563,1.09375 -0.82812,0.3125 -1.79687,0.3125 -1.59375,0 -2.45313,-0.78125 -0.85937,-0.78125 -0.85937,-1.98438 0,-0.71875 0.32812,-1.29687 0.32813,-0.59375 0.84375,-0.9375 0.53125,-0.35938 1.1875,-0.54688 0.46875,-0.125 1.45313,-0.25 1.98437,-0.23437 2.92187,-0.5625 0.0156,-0.34375 0.0156,-0.42187 0,-1 -0.46875,-1.42188 -0.625,-0.54687 -1.875,-0.54687 -1.15625,0 -1.70313,0.40625 -0.54687,0.40625 -0.8125,1.42187 l -1.60937,-0.21875 q 0.21875,-1.01562 0.71875,-1.64062 0.5,-0.64063 1.45312,-0.98438 0.95313,-0.34375 2.1875,-0.34375 1.25,0 2.01563,0.29688 0.78125,0.28125 1.14062,0.73437 0.375,0.4375 0.51563,1.10938 0.0781,0.42187 0.0781,1.51562 v 2.1875 q 0,2.28125 0.10938,2.89063 0.10937,0.59375 0.40625,1.15625 h -1.70313 q -0.26562,-0.51563 -0.32812,-1.1875 z m -0.14063,-3.67188 q -0.89062,0.375 -2.67187,0.625 -1.01563,0.14063 -1.4375,0.32813 -0.42188,0.1875 -0.65625,0.53125 -0.21875,0.34375 -0.21875,0.78125 0,0.65625 0.5,1.09375 0.5,0.4375 1.45312,0.4375 0.9375,0 1.67188,-0.40625 0.75,-0.42188 1.09375,-1.14063 0.26562,-0.5625 0.26562,-1.64062 z m 15.69965,1.3125 1.60937,0.21875 q -0.26562,1.65625 -1.35937,2.60938 -1.07813,0.9375 -2.67188,0.9375 -1.98437,0 -3.1875,-1.29688 -1.20312,-1.29687 -1.20312,-3.71875 0,-1.57812 0.51562,-2.75 0.51563,-1.17187 1.57813,-1.75 1.0625,-0.59375 2.3125,-0.59375 1.57812,0 2.57812,0.79688 1,0.79687 1.28125,2.26562 l -1.59375,0.23438 q -0.23437,-0.96875 -0.8125,-1.45313 -0.57812,-0.5 -1.39062,-0.5 -1.23438,0 -2.01563,0.89063 -0.78125,0.89062 -0.78125,2.8125 0,1.95312 0.75,2.84375 0.75,0.875 1.95313,0.875 0.96875,0 1.60937,-0.59375 0.65625,-0.59375 0.82813,-1.82813 z m 2.96875,3.54688 v -13.35938 h 1.64062 v 13.35938 z m 10.50421,-1.1875 q -0.92187,0.76562 -1.76562,1.09375 -0.82813,0.3125 -1.79688,0.3125 -1.59375,0 -2.45312,-0.78125 -0.85938,-0.78125 -0.85938,-1.98438 0,-0.71875 0.32813,-1.29687 0.32812,-0.59375 0.84375,-0.9375 0.53125,-0.35938 1.1875,-0.54688 0.46875,-0.125 1.45312,-0.25 1.98438,-0.23437 2.92188,-0.5625 0.0156,-0.34375 0.0156,-0.42187 0,-1 -0.46875,-1.42188 -0.625,-0.54687 -1.875,-0.54687 -1.15625,0 -1.70312,0.40625 -0.54688,0.40625 -0.8125,1.42187 l -1.60938,-0.21875 q 0.21875,-1.01562 0.71875,-1.64062 0.5,-0.64063 1.45313,-0.98438 0.95312,-0.34375 2.1875,-0.34375 1.25,0 2.01562,0.29688 0.78125,0.28125 1.14063,0.73437 0.375,0.4375 0.51562,1.10938 0.0781,0.42187 0.0781,1.51562 v 2.1875 q 0,2.28125 0.10937,2.89063 0.10938,0.59375 0.40625,1.15625 h -1.70312 q -0.26563,-0.51563 -0.32813,-1.1875 z m -0.14062,-3.67188 q -0.89063,0.375 -2.67188,0.625 -1.01562,0.14063 -1.4375,0.32813 -0.42187,0.1875 -0.65625,0.53125 -0.21875,0.34375 -0.21875,0.78125 0,0.65625 0.5,1.09375 0.5,0.4375 1.45313,0.4375 0.9375,0 1.67187,-0.40625 0.75,-0.42188 1.09375,-1.14063 0.26563,-0.5625 0.26563,-1.64062 z m 3.5476,1.96875 1.625,-0.25 q 0.125,0.96875 0.75,1.5 0.625,0.51563 1.75,0.51563 1.125,0 1.67188,-0.45313 0.54687,-0.46875 0.54687,-1.09375 0,-0.54687 -0.48437,-0.875 -0.32813,-0.21875 -1.67188,-0.54687 -1.8125,-0.46875 -2.51562,-0.79688 -0.6875,-0.32812 -1.04688,-0.90625 -0.35937,-0.59375 -0.35937,-1.3125 0,-0.64062 0.29687,-1.1875 0.29688,-0.5625 0.8125,-0.92187 0.375,-0.28125 1.03125,-0.46875 0.67188,-0.20313 1.42188,-0.20313 1.14062,0 2,0.32813 0.85937,0.32812 1.26562,0.89062 0.42188,0.5625 0.57813,1.5 l -1.60938,0.21875 q -0.10937,-0.75 -0.64062,-1.17187 -0.51563,-0.42188 -1.46875,-0.42188 -1.14063,0 -1.625,0.375 -0.46875,0.375 -0.46875,0.875 0,0.3125 0.1875,0.57813 0.20312,0.26562 0.64062,0.4375 0.23438,0.0937 1.4375,0.42187 1.75,0.45313 2.4375,0.75 0.6875,0.29688 1.07813,0.85938 0.39062,0.5625 0.39062,1.40625 0,0.82812 -0.48437,1.54687 -0.46875,0.71875 -1.375,1.125 -0.90625,0.39063 -2.04688,0.39063 -1.875,0 -2.875,-0.78125 -0.98437,-0.78125 -1.25,-2.32813 z m 9.32813,0 1.625,-0.25 q 0.125,0.96875 0.75,1.5 0.625,0.51563 1.75,0.51563 1.125,0 1.67187,-0.45313 0.54688,-0.46875 0.54688,-1.09375 0,-0.54687 -0.48438,-0.875 -0.32812,-0.21875 -1.67187,-0.54687 -1.8125,-0.46875 -2.51563,-0.79688 -0.6875,-0.32812 -1.04687,-0.90625 -0.35938,-0.59375 -0.35938,-1.3125 0,-0.64062 0.29688,-1.1875 0.29687,-0.5625 0.8125,-0.92187 0.375,-0.28125 1.03125,-0.46875 0.67187,-0.20313 1.42187,-0.20313 1.14063,0 2,0.32813 0.85938,0.32812 1.26563,0.89062 0.42187,0.5625 0.57812,1.5 l -1.60937,0.21875 q -0.10938,-0.75 -0.64063,-1.17187 -0.51562,-0.42188 -1.46875,-0.42188 -1.14062,0 -1.625,0.375 -0.46875,0.375 -0.46875,0.875 0,0.3125 0.1875,0.57813 0.20313,0.26562 0.64063,0.4375 0.23437,0.0937 1.4375,0.42187 1.75,0.45313 2.4375,0.75 0.6875,0.29688 1.07812,0.85938 0.39063,0.5625 0.39063,1.40625 0,0.82812 -0.48438,1.54687 -0.46875,0.71875 -1.375,1.125 -0.90625,0.39063 -2.04687,0.39063 -1.875,0 -2.875,-0.78125 -0.98438,-0.78125 -1.25,-2.32813 z m 9.98437,-8.57812 v -1.89063 h 1.64063 v 1.89063 z m 0,11.46875 v -9.67188 h 1.64063 v 9.67188 z m 10.30109,3.70312 v -4.73437 q -0.375,0.54687 -1.0625,0.90625 -0.6875,0.34375 -1.46875,0.34375 -1.71875,0 -2.96875,-1.375 -1.23438,-1.375 -1.23438,-3.76563 0,-1.46875 0.5,-2.625 0.51563,-1.15625 1.46875,-1.75 0.96875,-0.59375 2.10938,-0.59375 1.79687,0 2.82812,1.51563 v -1.29688 h 1.46875 v 13.375 z m -5.04688,-8.5625 q 0,1.85938 0.78125,2.79688 0.78125,0.9375 1.875,0.9375 1.04688,0 1.79688,-0.89063 0.76562,-0.89062 0.76562,-2.70312 0,-1.9375 -0.79687,-2.90625 -0.79688,-0.96875 -1.875,-0.96875 -1.0625,0 -1.8125,0.90625 -0.73438,0.90625 -0.73438,2.82812 z m 15.59449,4.85938 v -1.42188 q -1.125,1.64063 -3.0625,1.64063 -0.85938,0 -1.60938,-0.32813 -0.73437,-0.32812 -1.09375,-0.82812 -0.35937,-0.5 -0.5,-1.21875 -0.10937,-0.46875 -0.10937,-1.53125 v -5.98438 h 1.64062 v 5.35938 q 0,1.28125 0.10938,1.73437 0.15625,0.64063 0.65625,1.01563 0.5,0.375 1.23437,0.375 0.73438,0 1.375,-0.375 0.65625,-0.39063 0.92188,-1.03125 0.26562,-0.65625 0.26562,-1.89063 v -5.1875 h 1.64063 v 9.67188 z m 10.67254,-3.10938 1.6875,0.20313 q -0.40625,1.48437 -1.48437,2.3125 -1.07813,0.8125 -2.76563,0.8125 -2.125,0 -3.375,-1.29688 -1.23437,-1.3125 -1.23437,-3.67187 0,-2.45313 1.25,-3.79688 1.26562,-1.34375 3.26562,-1.34375 1.9375,0 3.15625,1.32813 1.23438,1.3125 1.23438,3.70312 0,0.15625 0,0.4375 h -7.21875 q 0.0937,1.59375 0.90625,2.45313 0.8125,0.84375 2.01562,0.84375 0.90625,0 1.54688,-0.46875 0.64062,-0.48438 1.01562,-1.51563 z m -5.39062,-2.65625 h 5.40625 q -0.10938,-1.21875 -0.625,-1.82812 -0.78125,-0.95313 -2.03125,-0.95313 -1.125,0 -1.90625,0.76563 -0.76563,0.75 -0.84375,2.01562 z"
       id="path17"
       inkscape:connector-curvature="0"
       style="fill:#000000;fill-rule:nonzero" />
    <path
       d="m 590.063,290.60104 h 220.12335 v 59.62991 H 590.063 Z"
       id="path19"
       inkscape:connector-curvature="0"
       style="fill:#b4a7d6;fill-rule:evenodd" />
    <path
       d="m 590.063,290.60104 h 220.12335 v 59.62991 H 590.063 Z"
       id="path21"
       inkscape:connector-curvature="0"
       style="fill-rule:evenodd;stroke:#595959;stroke-width:1;stroke-linecap:butt;stroke-linejoin:round" />
    <path
       d="m 626.375,327.336 v -13.35937 h 1.8125 l 7.01562,10.48437 v -10.48437 h 1.6875 V 327.336 h -1.8125 l -7.01562,-10.5 v 10.5 z m 12.67602,-4.84375 q 0,-2.6875 1.48438,-3.96875 1.25,-1.07812 3.04687,-1.07812 2,0 3.26563,1.3125 1.26562,1.29687 1.26562,3.60937 0,1.85938 -0.5625,2.9375 -0.5625,1.0625 -1.64062,1.65625 -1.0625,0.59375 -2.32813,0.59375 -2.03125,0 -3.28125,-1.29687 -1.25,-1.3125 -1.25,-3.76563 z m 1.6875,0 q 0,1.85938 0.79688,2.79688 0.8125,0.92187 2.04687,0.92187 1.21875,0 2.03125,-0.92187 0.8125,-0.9375 0.8125,-2.84375 0,-1.79688 -0.8125,-2.71875 -0.8125,-0.92188 -2.03125,-0.92188 -1.23437,0 -2.04687,0.92188 -0.79688,0.90625 -0.79688,2.76562 z m 15.62574,4.84375 v -1.42187 q -1.125,1.64062 -3.0625,1.64062 -0.85938,0 -1.60938,-0.32812 -0.73437,-0.32813 -1.09375,-0.82813 -0.35937,-0.5 -0.5,-1.21875 -0.10937,-0.46875 -0.10937,-1.53125 v -5.98437 h 1.64062 v 5.35937 q 0,1.28125 0.10938,1.73438 0.15625,0.64062 0.65625,1.01562 0.5,0.375 1.23437,0.375 0.73438,0 1.375,-0.375 0.65625,-0.39062 0.92188,-1.03125 0.26562,-0.65625 0.26562,-1.89062 v -5.1875 h 1.64063 v 9.67187 z m 6.7351,0 -3.6875,-9.67187 h 1.73438 l 2.07812,5.79687 q 0.32813,0.9375 0.625,1.9375 0.20313,-0.76562 0.60938,-1.82812 l 2.14062,-5.90625 h 1.6875 l -3.65625,9.67187 z m 13.26563,-3.10937 1.6875,0.20312 q -0.40625,1.48438 -1.48438,2.3125 -1.07812,0.8125 -2.76562,0.8125 -2.125,0 -3.375,-1.29687 -1.23438,-1.3125 -1.23438,-3.67188 0,-2.45312 1.25,-3.79687 1.26563,-1.34375 3.26563,-1.34375 1.9375,0 3.15625,1.32812 1.23437,1.3125 1.23437,3.70313 0,0.15625 0,0.4375 h -7.21875 q 0.0937,1.59375 0.90625,2.45312 0.8125,0.84375 2.01563,0.84375 0.90625,0 1.54687,-0.46875 0.64063,-0.48437 1.01563,-1.51562 z m -5.39063,-2.65625 h 5.40625 q -0.10937,-1.21875 -0.625,-1.82813 -0.78125,-0.95312 -2.03125,-0.95312 -1.125,0 -1.90625,0.76562 -0.76562,0.75 -0.84375,2.01563 z m 15.45386,4.57812 q -0.92187,0.76563 -1.76562,1.09375 -0.82813,0.3125 -1.79688,0.3125 -1.59375,0 -2.45312,-0.78125 -0.85938,-0.78125 -0.85938,-1.98437 0,-0.71875 0.32813,-1.29688 0.32812,-0.59375 0.84375,-0.9375 0.53125,-0.35937 1.1875,-0.54687 0.46875,-0.125 1.45312,-0.25 1.98438,-0.23438 2.92188,-0.5625 0.0156,-0.34375 0.0156,-0.42188 0,-1 -0.46875,-1.42187 -0.625,-0.54688 -1.875,-0.54688 -1.15625,0 -1.70312,0.40625 -0.54688,0.40625 -0.8125,1.42188 l -1.60938,-0.21875 q 0.21875,-1.01563 0.71875,-1.64063 0.5,-0.64062 1.45313,-0.98437 0.95312,-0.34375 2.1875,-0.34375 1.25,0 2.01562,0.29687 0.78125,0.28125 1.14063,0.73438 0.375,0.4375 0.51562,1.10937 0.0781,0.42188 0.0781,1.51563 v 2.1875 q 0,2.28125 0.10937,2.89062 0.10938,0.59375 0.40625,1.15625 h -1.70312 q -0.26563,-0.51562 -0.32813,-1.1875 z m -0.14062,-3.67187 q -0.89063,0.375 -2.67188,0.625 -1.01562,0.14062 -1.4375,0.32812 -0.42187,0.1875 -0.65625,0.53125 -0.21875,0.34375 -0.21875,0.78125 0,0.65625 0.5,1.09375 0.5,0.4375 1.45313,0.4375 0.9375,0 1.67187,-0.40625 0.75,-0.42187 1.09375,-1.14062 0.26563,-0.5625 0.26563,-1.64063 z m 10.53192,4.85937 v -1.42187 q -1.125,1.64062 -3.0625,1.64062 -0.85938,0 -1.60938,-0.32812 -0.73437,-0.32813 -1.09375,-0.82813 -0.35937,-0.5 -0.5,-1.21875 -0.10937,-0.46875 -0.10937,-1.53125 v -5.98437 h 1.64062 v 5.35937 q 0,1.28125 0.10938,1.73438 0.15625,0.64062 0.65625,1.01562 0.5,0.375 1.23437,0.375 0.73438,0 1.375,-0.375 0.65625,-0.39062 0.92188,-1.03125 0.26562,-0.65625 0.26562,-1.89062 v -5.1875 h 1.64063 v 9.67187 z m 7.62573,-1.46875 0.23437,1.45313 q -0.6875,0.14062 -1.23437,0.14062 -0.89063,0 -1.39063,-0.28125 -0.48437,-0.28125 -0.6875,-0.73437 -0.20312,-0.46875 -0.20312,-1.9375 v -5.57813 h -1.20313 v -1.26562 h 1.20313 v -2.39063 l 1.625,-0.98437 v 3.375 h 1.65625 v 1.26562 H 702.789 v 5.67188 q 0,0.6875 0.0781,0.89062 0.0937,0.20313 0.28125,0.32813 0.20313,0.10937 0.57813,0.10937 0.26562,0 0.71875,-0.0625 z m 8.23016,-1.64062 1.6875,0.20312 q -0.40625,1.48438 -1.48437,2.3125 -1.07813,0.8125 -2.76563,0.8125 -2.125,0 -3.375,-1.29687 -1.23437,-1.3125 -1.23437,-3.67188 0,-2.45312 1.25,-3.79687 1.26562,-1.34375 3.26562,-1.34375 1.9375,0 3.15625,1.32812 1.23438,1.3125 1.23438,3.70313 0,0.15625 0,0.4375 h -7.21875 q 0.0937,1.59375 0.90625,2.45312 0.8125,0.84375 2.01562,0.84375 0.90625,0 1.54688,-0.46875 0.64062,-0.48437 1.01562,-1.51562 z m -5.39062,-2.65625 h 5.40625 q -0.10938,-1.21875 -0.625,-1.82813 -0.78125,-0.95312 -2.03125,-0.95312 -1.125,0 -1.90625,0.76562 -0.76563,0.75 -0.84375,2.01563 z m 1.76562,-5.10938 1.21875,-2.54687 h 2.15625 l -2.01562,2.54687 z m 15.68402,14.79688 q -1.35937,-1.70313 -2.29687,-4 -0.9375,-2.29688 -0.9375,-4.76563 0,-2.15625 0.70312,-4.14062 0.82813,-2.3125 2.53125,-4.59375 h 1.17188 q -1.09375,1.89062 -1.45313,2.70312 -0.54687,1.25 -0.875,2.625 -0.39062,1.70313 -0.39062,3.42188 0,4.375 2.71875,8.75 z m 2.69709,-8.21875 1.65625,-0.14063 q 0.125,1 0.54687,1.64063 0.4375,0.64062 1.34375,1.04687 0.92188,0.39063 2.0625,0.39063 1,0 1.78125,-0.29688 0.78125,-0.29687 1.15625,-0.8125 0.375,-0.53125 0.375,-1.15625 0,-0.625 -0.375,-1.09375 -0.35937,-0.46875 -1.1875,-0.79687 -0.54687,-0.20313 -2.39062,-0.64063 -1.82813,-0.45312 -2.5625,-0.84375 -0.96875,-0.5 -1.4375,-1.23437 -0.46875,-0.75 -0.46875,-1.67188 0,-1 0.57812,-1.875 0.57813,-0.89062 1.67188,-1.34375 1.10937,-0.45312 2.45312,-0.45312 1.48438,0 2.60938,0.48437 1.14062,0.46875 1.75,1.40625 0.60937,0.92188 0.65625,2.09375 l -1.6875,0.125 q -0.14063,-1.26562 -0.9375,-1.90625 -0.78125,-0.65625 -2.3125,-0.65625 -1.60938,0 -2.34375,0.59375 -0.73438,0.59375 -0.73438,1.42188 0,0.71875 0.53125,1.17187 0.5,0.46875 2.65625,0.96875 2.15625,0.48438 2.95313,0.84375 1.17187,0.53125 1.71875,1.35938 0.5625,0.82812 0.5625,1.90625 0,1.0625 -0.60938,2.01562 -0.60937,0.9375 -1.75,1.46875 -1.14062,0.51563 -2.57812,0.51563 -1.8125,0 -3.04688,-0.53125 -1.21875,-0.53125 -1.92187,-1.59375 -0.6875,-1.0625 -0.71875,-2.40625 z m 12.50604,-2.20313 q 0,-3.32812 1.78125,-5.20312 1.78125,-1.89063 4.60937,-1.89063 1.84375,0 3.32813,0.89063 1.48437,0.875 2.26562,2.46875 0.78125,1.57812 0.78125,3.57812 0,2.03125 -0.82812,3.64063 -0.8125,1.59375 -2.3125,2.42187 -1.5,0.82813 -3.25,0.82813 -1.875,0 -3.35938,-0.90625 -1.48437,-0.92188 -2.25,-2.5 -0.76562,-1.57813 -0.76562,-3.32813 z m 1.8125,0.0156 q 0,2.42187 1.29687,3.8125 1.29688,1.39062 3.26563,1.39062 2,0 3.28125,-1.40625 1.28125,-1.40625 1.28125,-3.98437 0,-1.625 -0.54688,-2.84375 -0.54687,-1.21875 -1.60937,-1.875 -1.0625,-0.67188 -2.375,-0.67188 -1.89063,0 -3.25,1.29688 -1.34375,1.28125 -1.34375,4.28125 z m 13.18335,6.48437 V 313.9766 h 2.65625 l 3.15625,9.45312 q 0.4375,1.32813 0.64062,1.98438 0.23438,-0.73438 0.70313,-2.14063 l 3.20312,-9.29687 h 2.375 v 13.3594 h -1.70312 v -11.17187 l -3.875,11.17187 h -1.59375 l -3.85938,-11.375 v 11.375 z m 16.46265,3.92188 h -1.1875 q 2.73437,-4.375 2.73437,-8.75 0,-1.71875 -0.39062,-3.39063 -0.3125,-1.375 -0.875,-2.625 -0.35938,-0.82812 -1.46875,-2.73437 h 1.1875 q 1.70312,2.28125 2.53125,4.59375 0.6875,1.98437 0.6875,4.14062 0,2.46875 -0.9375,4.76563 -0.9375,2.29687 -2.28125,4 z"
       id="path23"
       inkscape:connector-curvature="0"
       style="fill:#000000;fill-rule:nonzero" />
    <path
       d="m 149.81627,290.60104 h 220.12337 v 59.62991 H 149.81627 Z"
       id="path25"
       inkscape:connector-curvature="0"
       style="fill:#b6d7a8;fill-rule:evenodd" />
    <path
       d="m 149.81627,290.60104 h 220.12337 v 59.62991 H 149.81627 Z"
       id="path27"
       inkscape:connector-curvature="0"
       style="fill-rule:evenodd;stroke:#595959;stroke-width:1;stroke-linecap:butt;stroke-linejoin:round" />
    <path
       d="m 184.5575,327.336 v -13.35937 h 2.65625 l 3.15625,9.45312 q 0.4375,1.32813 0.64062,1.98438 0.23438,-0.73438 0.70313,-2.14063 l 3.20312,-9.29687 h 2.375 V 327.336 h -1.70312 v -11.17187 l -3.875,11.17187 H 190.12 l -3.85938,-11.375 v 11.375 z m 14.77518,-4.84375 q 0,-2.6875 1.48437,-3.96875 1.25,-1.07812 3.04688,-1.07812 2,0 3.26562,1.3125 1.26563,1.29687 1.26563,3.60937 0,1.85938 -0.5625,2.9375 -0.5625,1.0625 -1.64063,1.65625 -1.0625,0.59375 -2.32812,0.59375 -2.03125,0 -3.28125,-1.29687 -1.25,-1.3125 -1.25,-3.76563 z m 1.6875,0 q 0,1.85938 0.79687,2.79688 0.8125,0.92187 2.04688,0.92187 1.21875,0 2.03125,-0.92187 0.8125,-0.9375 0.8125,-2.84375 0,-1.79688 -0.8125,-2.71875 -0.8125,-0.92188 -2.03125,-0.92188 -1.23438,0 -2.04688,0.92188 -0.79687,0.90625 -0.79687,2.76562 z m 15.62571,4.84375 v -1.42187 q -1.125,1.64062 -3.0625,1.64062 -0.85937,0 -1.60937,-0.32812 -0.73438,-0.32813 -1.09375,-0.82813 -0.35938,-0.5 -0.5,-1.21875 -0.10938,-0.46875 -0.10938,-1.53125 v -5.98437 h 1.64063 v 5.35937 q 0,1.28125 0.10937,1.73438 0.15625,0.64062 0.65625,1.01562 0.5,0.375 1.23438,0.375 0.73437,0 1.375,-0.375 0.65625,-0.39062 0.92187,-1.03125 0.26563,-0.65625 0.26563,-1.89062 v -5.1875 h 1.64062 v 9.67187 z m 6.7351,0 -3.6875,-9.67187 h 1.73437 l 2.07813,5.79687 q 0.32812,0.9375 0.625,1.9375 0.20312,-0.76562 0.60937,-1.82812 l 2.14063,-5.90625 h 1.6875 l -3.65625,9.67187 z m 13.26562,-3.10937 1.6875,0.20312 q -0.40625,1.48438 -1.48437,2.3125 -1.07813,0.8125 -2.76563,0.8125 -2.125,0 -3.375,-1.29687 -1.23437,-1.3125 -1.23437,-3.67188 0,-2.45312 1.25,-3.79687 1.26562,-1.34375 3.26562,-1.34375 1.9375,0 3.15625,1.32812 1.23438,1.3125 1.23438,3.70313 0,0.15625 0,0.4375 h -7.21875 q 0.0937,1.59375 0.90625,2.45312 0.8125,0.84375 2.01562,0.84375 0.90625,0 1.54688,-0.46875 0.64062,-0.48437 1.01562,-1.51562 z m -5.39062,-2.65625 h 5.40625 q -0.10938,-1.21875 -0.625,-1.82813 -0.78125,-0.95312 -2.03125,-0.95312 -1.125,0 -1.90625,0.76562 -0.76563,0.75 -0.84375,2.01563 z m 9.14134,5.76562 v -9.67187 h 1.46875 v 1.35937 q 0.45312,-0.71875 1.20312,-1.14062 0.76563,-0.4375 1.71875,-0.4375 1.07813,0 1.76563,0.45312 0.6875,0.4375 0.96875,1.23438 1.15625,-1.6875 2.98437,-1.6875 1.45313,0 2.21875,0.79687 0.78125,0.79688 0.78125,2.45313 v 6.64062 h -1.64062 v -6.09375 q 0,-0.98437 -0.15625,-1.40625 -0.15625,-0.4375 -0.57813,-0.70312 -0.42187,-0.26563 -0.98437,-0.26563 -1.01563,0 -1.6875,0.6875 -0.67188,0.67188 -0.67188,2.15625 v 5.625 h -1.64062 v -6.28125 q 0,-1.09375 -0.40625,-1.64062 -0.40625,-0.54688 -1.3125,-0.54688 -0.6875,0 -1.28125,0.35938 -0.59375,0.35937 -0.85938,1.0625 -0.25,0.70312 -0.25,2.03125 v 5.01562 z m 22.16582,-3.10937 1.6875,0.20312 q -0.40625,1.48438 -1.48438,2.3125 -1.07812,0.8125 -2.76562,0.8125 -2.125,0 -3.375,-1.29687 -1.2344,-1.3125 -1.2344,-3.67188 0,-2.45312 1.25002,-3.79687 1.26563,-1.34375 3.26563,-1.34375 1.9375,0 3.15625,1.32812 1.23437,1.3125 1.23437,3.70313 0,0.15625 0,0.4375 h -7.21875 q 0.0937,1.59375 0.90625,2.45312 0.8125,0.84375 2.01563,0.84375 0.90625,0 1.54687,-0.46875 0.64063,-0.48437 1.01563,-1.51562 z m -5.39063,-2.65625 h 5.40625 q -0.10937,-1.21875 -0.625,-1.82813 -0.78125,-0.95312 -2.03125,-0.95312 -1.125,0 -1.90625,0.76562 -0.76562,0.75 -0.84375,2.01563 z m 9.14133,5.76562 v -9.67187 h 1.46875 v 1.375 q 1.0625,-1.59375 3.07812,-1.59375 0.875,0 1.60938,0.3125 0.73437,0.3125 1.09375,0.82812 0.375,0.5 0.51562,1.20313 0.0937,0.45312 0.0937,1.59375 v 5.95312 h -1.64062 v -5.89062 q 0,-1 -0.20313,-1.48438 -0.1875,-0.5 -0.67187,-0.79687 -0.48438,-0.29688 -1.14063,-0.29688 -1.04687,0 -1.8125,0.67188 -0.75,0.65625 -0.75,2.51562 v 5.28125 z m 13.95385,-1.46875 0.23438,1.45313 q -0.6875,0.14062 -1.23438,0.14062 -0.89062,0 -1.39062,-0.28125 -0.48438,-0.28125 -0.6875,-0.73437 -0.20313,-0.46875 -0.20313,-1.9375 v -5.57813 h -1.20312 v -1.26562 h 1.20312 v -2.39063 l 1.625,-0.98437 v 3.375 h 1.65625 v 1.26562 h -1.65625 v 5.67188 q 0,0.6875 0.0781,0.89062 0.0937,0.20313 0.28125,0.32813 0.20312,0.10937 0.57812,0.10937 0.26563,0 0.71875,-0.0625 z m 9.91349,5.39063 q -1.35938,-1.70313 -2.29688,-4 -0.9375,-2.29688 -0.9375,-4.76563 0,-2.15625 0.70313,-4.14062 0.82812,-2.3125 2.53125,-4.59375 h 1.17187 q -1.09375,1.89062 -1.45312,2.70312 -0.54688,1.25 -0.875,2.625 -0.39063,1.70313 -0.39063,3.42188 0,4.375 2.71875,8.75 z m 3.2908,-3.92188 v -13.35937 h 4.60937 q 1.54688,0 2.375,0.20312 1.14063,0.25 1.95313,0.95313 1.0625,0.89062 1.57812,2.28125 0.53125,1.39062 0.53125,3.17187 0,1.51563 -0.35937,2.70313 -0.35938,1.17187 -0.92188,1.9375 -0.54687,0.76562 -1.20312,1.21875 -0.65625,0.4375 -1.59375,0.67187 -0.9375,0.21875 -2.14063,0.21875 z m 1.76562,-1.57812 h 2.85938 q 1.3125,0 2.0625,-0.23438 0.75,-0.25 1.20312,-0.70312 0.625,-0.625 0.96875,-1.6875 0.35938,-1.0625 0.35938,-2.57813 0,-2.09375 -0.6875,-3.21875 -0.6875,-1.125 -1.67188,-1.5 -0.70312,-0.28125 -2.28125,-0.28125 h -2.8125 z m 11.69168,1.57812 v -13.35937 h 1.8125 l 7.01563,10.48437 v -10.48437 h 1.6875 V 327.336 h -1.8125 l -7.01563,-10.5 v 10.5 z m 13.58234,0 v -13.35937 h 9.01563 v 1.57812 h -7.25 v 4.14063 h 6.26562 v 1.57812 h -6.26562 v 6.0625 z m 12.17722,3.92188 h -1.1875 q 2.73437,-4.375 2.73437,-8.75 0,-1.71875 -0.39062,-3.39063 -0.3125,-1.375 -0.875,-2.625 -0.35938,-0.82812 -1.46875,-2.73437 h 1.1875 q 1.70312,2.28125 2.53125,4.59375 0.6875,1.98437 0.6875,4.14062 0,2.46875 -0.9375,4.76563 -0.9375,2.29687 -2.28125,4 z"
       id="path29"
       inkscape:connector-curvature="0"
       style="fill:#000000;fill-rule:nonzero" />
    <path
       d="M 369.93832,146.11023 H 590.0617 v 59.62993 H 369.93832 Z"
       id="path31"
       inkscape:connector-curvature="0"
       style="fill:#b6d7a8;fill-rule:evenodd" />
    <path
       d="M 369.93832,146.11023 H 590.0617 v 59.62993 H 369.93832 Z"
       id="path33"
       inkscape:connector-curvature="0"
       style="fill-rule:evenodd;stroke:#595959;stroke-width:1;stroke-linecap:butt;stroke-linejoin:round" />
    <path
       d="m 415.17288,182.8452 5.125,-13.35938 h 1.90625 l 5.46875,13.35938 h -2.01562 l -1.54688,-4.04688 h -5.59375 l -1.46875,4.04688 z m 3.85938,-5.48438 h 4.53125 l -1.40625,-3.70312 q -0.625,-1.6875 -0.9375,-2.76563 -0.26563,1.28125 -0.71875,2.54688 z m 13.42794,4.01563 0.23438,1.45312 q -0.6875,0.14063 -1.23438,0.14063 -0.89062,0 -1.39062,-0.28125 -0.48438,-0.28125 -0.6875,-0.73438 -0.20313,-0.46875 -0.20313,-1.9375 v -5.57812 h -1.20312 v -1.26563 h 1.20312 v -2.39062 l 1.625,-0.98438 v 3.375 h 1.65625 v 1.26563 h -1.65625 v 5.67187 q 0,0.6875 0.0781,0.89063 0.0937,0.20312 0.28125,0.32812 0.20312,0.10938 0.57812,0.10938 0.26563,0 0.71875,-0.0625 z m 5.18332,0 0.23438,1.45312 q -0.6875,0.14063 -1.23438,0.14063 -0.89062,0 -1.39062,-0.28125 -0.48438,-0.28125 -0.6875,-0.73438 -0.20313,-0.46875 -0.20313,-1.9375 v -5.57812 h -1.20312 v -1.26563 h 1.20312 v -2.39062 l 1.625,-0.98438 v 3.375 h 1.65625 v 1.26563 h -1.65625 v 5.67187 q 0,0.6875 0.0781,0.89063 0.0937,0.20312 0.28125,0.32812 0.20312,0.10938 0.57812,0.10938 0.26563,0 0.71875,-0.0625 z m 8.23017,-1.64063 1.6875,0.20313 q -0.40625,1.48437 -1.48438,2.3125 -1.07812,0.8125 -2.76562,0.8125 -2.125,0 -3.375,-1.29688 -1.23438,-1.3125 -1.23438,-3.67187 0,-2.45313 1.25,-3.79688 1.26563,-1.34375 3.26563,-1.34375 1.9375,0 3.15625,1.32813 1.23437,1.3125 1.23437,3.70312 0,0.15625 0,0.4375 h -7.21875 q 0.0937,1.59375 0.90625,2.45313 0.8125,0.84375 2.01563,0.84375 0.90625,0 1.54687,-0.46875 0.64063,-0.48438 1.01563,-1.51563 z m -5.39063,-2.65625 h 5.40625 q -0.10937,-1.21875 -0.625,-1.82812 -0.78125,-0.95313 -2.03125,-0.95313 -1.125,0 -1.90625,0.76563 -0.76562,0.75 -0.84375,2.01562 z m 9.14136,5.76563 v -9.67188 h 1.46875 v 1.375 q 1.0625,-1.59375 3.07812,-1.59375 0.875,0 1.60938,0.3125 0.73437,0.3125 1.09375,0.82813 0.375,0.5 0.51562,1.20312 0.0937,0.45313 0.0937,1.59375 v 5.95313 h -1.64062 v -5.89063 q 0,-1 -0.20313,-1.48437 -0.1875,-0.5 -0.67187,-0.79688 -0.48438,-0.29687 -1.14063,-0.29687 -1.04687,0 -1.8125,0.67187 -0.75,0.65625 -0.75,2.51563 v 5.28125 z m 13.95382,-1.46875 0.23438,1.45312 q -0.6875,0.14063 -1.23438,0.14063 -0.89062,0 -1.39062,-0.28125 -0.48438,-0.28125 -0.6875,-0.73438 -0.20313,-0.46875 -0.20313,-1.9375 v -5.57812 h -1.20312 v -1.26563 h 1.20312 v -2.39062 l 1.625,-0.98438 v 3.375 h 1.65625 v 1.26563 h -1.65625 v 5.67187 q 0,0.6875 0.0781,0.89063 0.0937,0.20312 0.28125,0.32812 0.20312,0.10938 0.57812,0.10938 0.26563,0 0.71875,-0.0625 z m 1.6052,-10 v -1.89063 h 1.64062 v 1.89063 z m 0,11.46875 v -9.67188 h 1.64062 v 9.67188 z m 3.53543,-4.84375 q 0,-2.6875 1.48438,-3.96875 1.25,-1.07813 3.04687,-1.07813 2,0 3.26563,1.3125 1.26562,1.29688 1.26562,3.60938 0,1.85937 -0.5625,2.9375 -0.5625,1.0625 -1.64062,1.65625 -1.0625,0.59375 -2.32813,0.59375 -2.03125,0 -3.28125,-1.29688 -1.25,-1.3125 -1.25,-3.76562 z m 1.6875,0 q 0,1.85937 0.79688,2.79687 0.8125,0.92188 2.04687,0.92188 1.21875,0 2.03125,-0.92188 0.8125,-0.9375 0.8125,-2.84375 0,-1.79687 -0.8125,-2.71875 -0.8125,-0.92187 -2.03125,-0.92187 -1.23437,0 -2.04687,0.92187 -0.79688,0.90625 -0.79688,2.76563 z m 9.29761,4.84375 v -9.67188 h 1.46875 v 1.375 q 1.0625,-1.59375 3.07812,-1.59375 0.875,0 1.60938,0.3125 0.73437,0.3125 1.09375,0.82813 0.375,0.5 0.51562,1.20312 0.0937,0.45313 0.0937,1.59375 v 5.95313 h -1.64062 v -5.89063 q 0,-1 -0.20313,-1.48437 -0.1875,-0.5 -0.67187,-0.79688 -0.48438,-0.29687 -1.14063,-0.29687 -1.04687,0 -1.8125,0.67187 -0.75,0.65625 -0.75,2.51563 v 5.28125 z m 18.68402,3.92187 q -1.35938,-1.70312 -2.29688,-4 -0.9375,-2.29687 -0.9375,-4.76562 0,-2.15625 0.70313,-4.14063 0.82812,-2.3125 2.53125,-4.59375 h 1.17187 q -1.09375,1.89063 -1.45312,2.70313 -0.54688,1.25 -0.875,2.625 -0.39063,1.70312 -0.39063,3.42187 0,4.375 2.71875,8.75 z m 3.2908,-3.92187 v -13.35938 h 4.60938 q 1.54687,0 2.375,0.20313 1.14062,0.25 1.95312,0.95312 1.0625,0.89063 1.57809,2.28125 0.53125,1.39063 0.53125,3.17188 0,1.51562 -0.35937,2.70312 -0.35938,1.17188 -0.92184,1.9375 -0.54688,0.76563 -1.20313,1.21875 -0.65625,0.4375 -1.59375,0.67188 -0.9375,0.21875 -2.14062,0.21875 z m 1.76563,-1.57813 h 2.85937 q 1.3125,0 2.0625,-0.23437 0.75,-0.25 1.20313,-0.70313 0.625,-0.625 0.96875,-1.6875 0.35937,-1.0625 0.35937,-2.57812 0,-2.09375 -0.6875,-3.21875 -0.6875,-1.125 -1.67187,-1.5 -0.70313,-0.28125 -2.28125,-0.28125 h -2.8125 z m 11.69168,1.57813 v -13.35938 h 1.8125 l 7.01562,10.48438 v -10.48438 h 1.6875 v 13.35938 h -1.8125 l -7.01562,-10.5 v 10.5 z m 13.58233,0 v -13.35938 h 9.01563 v 1.57813 h -7.25 v 4.14062 h 6.26562 v 1.57813 h -6.26562 v 6.0625 z m 12.17725,3.92187 h -1.1875 q 2.73437,-4.375 2.73437,-8.75 0,-1.71875 -0.39062,-3.39062 -0.3125,-1.375 -0.875,-2.625 -0.35938,-0.82813 -1.46875,-2.73438 h 1.1875 q 1.70312,2.28125 2.53125,4.59375 0.6875,1.98438 0.6875,4.14063 0,2.46875 -0.9375,4.76562 -0.9375,2.29688 -2.28125,4 z"
       id="path35"
       inkscape:connector-curvature="0"
       style="fill:#000000;fill-rule:nonzero" />
    <path
       d="M 259.87796,290.60104 480.00394,205.75065"
       id="path37"
       inkscape:connector-curvature="0"
       style="fill:#000000;fill-opacity:0;fill-rule:evenodd" />
    <path
       d="M 259.87796,290.60104 463.2085,212.22467"
       id="path39"
       inkscape:connector-curvature="0"
       style="fill-rule:evenodd;stroke:#595959;stroke-width:3;stroke-linecap:butt;stroke-linejoin:round" />
    <path
       d="m 464.99072,216.84828 10.92099,-9.52023 -14.48544,0.27302 z"
       id="path41"
       inkscape:connector-curvature="0"
       style="fill:#595959;fill-rule:evenodd;stroke:#595959;stroke-width:3;stroke-linecap:butt" />
    <path
       d="M 700.1247,290.60104 479.9987,205.75065"
       id="path43"
       inkscape:connector-curvature="0"
       style="fill:#000000;fill-opacity:0;fill-rule:evenodd" />
    <path
       d="M 700.1247,290.60104 496.79413,212.22467"
       id="path45"
       inkscape:connector-curvature="0"
       style="fill-rule:evenodd;stroke:#595959;stroke-width:3;stroke-linecap:butt;stroke-linejoin:round" />
    <path
       d="m 498.57635,207.60107 -14.48544,-0.27303 10.92099,9.52024 z"
       id="path47"
       inkscape:connector-curvature="0"
       style="fill:#595959;fill-rule:evenodd;stroke:#595959;stroke-width:3;stroke-linecap:butt" />
    <path
       d="M 590.0617,175.9252 H 835.18737 V 320.42914 H 810.18768"
       id="path49"
       inkscape:connector-curvature="0"
       style="fill:#000000;fill-opacity:0;fill-rule:evenodd" />
    <path
       d="m 590.0617,175.9252 h 245.12561 v 144.50394 h -6.99963"
       id="path51"
       inkscape:connector-curvature="0"
       style="fill-rule:evenodd;stroke:#595959;stroke-width:3;stroke-linecap:butt;stroke-linejoin:round" />
    <path
       d="m 828.1877,315.47394 -13.61432,4.9552 13.61432,4.9552 z"
       id="path53"
       inkscape:connector-curvature="0"
       style="fill:#595959;fill-rule:evenodd;stroke:#595959;stroke-width:3;stroke-linecap:butt" />
    <path
       d="M 369.937,320.41602 H 590.06298"
       id="path55"
       inkscape:connector-curvature="0"
       style="fill:#000000;fill-opacity:0;fill-rule:evenodd" />
    <path
       d="M 369.937,320.41602 H 572.06298"
       id="path57"
       inkscape:connector-curvature="0"
       style="fill-rule:evenodd;stroke:#595959;stroke-width:3;stroke-linecap:butt;stroke-linejoin:round" />
    <path
       d="m 572.063,325.37122 13.61432,-4.9552 -13.61432,-4.9552 z"
       id="path59"
       inkscape:connector-curvature="0"
       style="fill:#595959;fill-rule:evenodd;stroke:#595959;stroke-width:3;stroke-linecap:butt" />
    <path
       d="m 259.87796,435.09186 v -84.8504"
       id="path61"
       inkscape:connector-curvature="0"
       style="fill:#000000;fill-opacity:0;fill-rule:evenodd" />
    <path
       d="m 259.87796,435.09186 v -66.8504"
       id="path63"
       inkscape:connector-curvature="0"
       style="fill-rule:evenodd;stroke:#595959;stroke-width:3;stroke-linecap:butt;stroke-linejoin:round" />
    <path
       d="m 264.83316,368.24146 -4.9552,-13.61429 -4.9552,13.61429 z"
       id="path65"
       inkscape:connector-curvature="0"
       style="fill:#595959;fill-rule:evenodd;stroke:#595959;stroke-width:3;stroke-linecap:butt" />
    <path
       d="m 700.12335,435.09186 v -84.8504"
       id="path67"
       inkscape:connector-curvature="0"
       style="fill:#000000;fill-opacity:0;fill-rule:evenodd" />
    <path
       d="m 700.12335,435.09186 v -66.8504"
       id="path69"
       inkscape:connector-curvature="0"
       style="fill-rule:evenodd;stroke:#595959;stroke-width:3;stroke-linecap:butt;stroke-linejoin:round" />
    <path
       d="m 705.07855,368.24146 -4.9552,-13.61429 -4.9552,13.61429 z"
       id="path71"
       inkscape:connector-curvature="0"
       style="fill:#595959;fill-rule:evenodd;stroke:#595959;stroke-width:3;stroke-linecap:butt" />
    <path
       d="m 259.87927,379.1391 h 162.70865 v 42.01575 H 259.87927 Z"
       id="path73"
       inkscape:connector-curvature="0"
       style="fill:#000000;fill-opacity:0;fill-rule:evenodd" />
    <path
       d="m 276.73865,402.94974 1.6875,0.20313 q -0.40625,1.48437 -1.48438,2.3125 -1.07812,0.8125 -2.76562,0.8125 -2.125,0 -3.375,-1.29688 -1.23438,-1.3125 -1.23438,-3.67187 0,-2.45313 1.25,-3.79688 1.26563,-1.34375 3.26563,-1.34375 1.9375,0 3.15625,1.32813 1.23437,1.3125 1.23437,3.70312 0,0.15625 0,0.4375 h -7.21875 q 0.0937,1.59375 0.90625,2.45313 0.8125,0.84375 2.01563,0.84375 0.90625,0 1.54687,-0.46875 0.64063,-0.48438 1.01563,-1.51563 z m -5.39063,-2.65625 h 5.40625 q -0.10937,-1.21875 -0.625,-1.82812 -0.78125,-0.95313 -2.03125,-0.95313 -1.125,0 -1.90625,0.76563 -0.76562,0.75 -0.84375,2.01562 z m 1.76563,-5.10937 1.21875,-2.54688 h 2.15625 l -2.01563,2.54688 z m 10.0632,10.875 -3.6875,-9.67188 h 1.73438 l 2.07812,5.79688 q 0.32813,0.9375 0.625,1.9375 0.20313,-0.76563 0.60938,-1.82813 l 2.14062,-5.90625 h 1.6875 l -3.65625,9.67188 z m 13.26563,-3.10938 1.6875,0.20313 q -0.40625,1.48437 -1.48438,2.3125 -1.07812,0.8125 -2.76562,0.8125 -2.125,0 -3.375,-1.29688 -1.23438,-1.3125 -1.23438,-3.67187 0,-2.45313 1.25,-3.79688 1.26563,-1.34375 3.26563,-1.34375 1.9375,0 3.15625,1.32813 1.23437,1.3125 1.23437,3.70312 0,0.15625 0,0.4375 h -7.21875 q 0.0937,1.59375 0.90625,2.45313 0.8125,0.84375 2.01563,0.84375 0.90625,0 1.54687,-0.46875 0.64063,-0.48438 1.01563,-1.51563 z m -5.39063,-2.65625 h 5.40625 q -0.10937,-1.21875 -0.625,-1.82812 -0.78125,-0.95313 -2.03125,-0.95313 -1.125,0 -1.90625,0.76563 -0.76562,0.75 -0.84375,2.01562 z m 3.78125,-5.10937 h -1.3125 l -2.10937,-2.54688 h 2.1875 z m 5.36011,10.875 v -9.67188 h 1.46875 v 1.375 q 1.0625,-1.59375 3.07812,-1.59375 0.875,0 1.60938,0.3125 0.73437,0.3125 1.09375,0.82813 0.375,0.5 0.51562,1.20312 0.0937,0.45313 0.0937,1.59375 v 5.95313 h -1.64062 v -5.89063 q 0,-1 -0.20313,-1.48437 -0.1875,-0.5 -0.67187,-0.79688 -0.48438,-0.29687 -1.14063,-0.29687 -1.04687,0 -1.8125,0.67187 -0.75,0.65625 -0.75,2.51563 v 5.28125 z m 17.0007,-3.10938 1.6875,0.20313 q -0.40625,1.48437 -1.48437,2.3125 -1.07813,0.8125 -2.76563,0.8125 -2.125,0 -3.375,-1.29688 -1.23437,-1.3125 -1.23437,-3.67187 0,-2.45313 1.25,-3.79688 1.26562,-1.34375 3.26562,-1.34375 1.9375,0 3.15625,1.32813 1.23438,1.3125 1.23438,3.70312 0,0.15625 0,0.4375 h -7.21875 q 0.0937,1.59375 0.90625,2.45313 0.8125,0.84375 2.01562,0.84375 0.90625,0 1.54688,-0.46875 0.64062,-0.48438 1.01562,-1.51563 z m -5.39062,-2.65625 h 5.40625 q -0.10938,-1.21875 -0.625,-1.82812 -0.78125,-0.95313 -2.03125,-0.95313 -1.125,0 -1.90625,0.76563 -0.76563,0.75 -0.84375,2.01562 z m 9.14135,5.76563 v -9.67188 h 1.46875 v 1.35938 q 0.45313,-0.71875 1.20313,-1.14063 0.76562,-0.4375 1.71875,-0.4375 1.07812,0 1.76562,0.45313 0.6875,0.4375 0.96875,1.23437 1.15625,-1.6875 2.98438,-1.6875 1.45312,0 2.21875,0.79688 0.78125,0.79687 0.78125,2.45312 v 6.64063 h -1.64063 v -6.09375 q 0,-0.98438 -0.15625,-1.40625 -0.15625,-0.4375 -0.57812,-0.70313 -0.42188,-0.26562 -0.98438,-0.26562 -1.01562,0 -1.6875,0.6875 -0.67187,0.67187 -0.67187,2.15625 v 5.625 h -1.64063 v -6.28125 q 0,-1.09375 -0.40625,-1.64063 -0.40625,-0.54687 -1.3125,-0.54687 -0.6875,0 -1.28125,0.35937 -0.59375,0.35938 -0.85937,1.0625 -0.25,0.70313 -0.25,2.03125 v 5.01563 z m 22.16581,-3.10938 1.6875,0.20313 q -0.40625,1.48437 -1.48438,2.3125 -1.07812,0.8125 -2.76562,0.8125 -2.125,0 -3.375,-1.29688 -1.23438,-1.3125 -1.23438,-3.67187 0,-2.45313 1.25,-3.79688 1.26563,-1.34375 3.26563,-1.34375 1.9375,0 3.15625,1.32813 1.23437,1.3125 1.23437,3.70312 0,0.15625 0,0.4375 h -7.21875 q 0.0937,1.59375 0.90625,2.45313 0.8125,0.84375 2.01563,0.84375 0.90625,0 1.54687,-0.46875 0.64063,-0.48438 1.01563,-1.51563 z m -5.39063,-2.65625 h 5.40625 q -0.10937,-1.21875 -0.625,-1.82812 -0.78125,-0.95313 -2.03125,-0.95313 -1.125,0 -1.90625,0.76563 -0.76562,0.75 -0.84375,2.01562 z m 9.14133,5.76563 v -9.67188 h 1.46875 v 1.375 q 1.0625,-1.59375 3.07812,-1.59375 0.875,0 1.60938,0.3125 0.73437,0.3125 1.09375,0.82813 0.375,0.5 0.51562,1.20312 0.0937,0.45313 0.0937,1.59375 v 5.95313 h -1.64062 v -5.89063 q 0,-1 -0.20313,-1.48437 -0.1875,-0.5 -0.67187,-0.79688 -0.48438,-0.29687 -1.14063,-0.29687 -1.04687,0 -1.8125,0.67187 -0.75,0.65625 -0.75,2.51563 v 5.28125 z m 13.95385,-1.46875 0.23438,1.45312 q -0.6875,0.14063 -1.23438,0.14063 -0.89062,0 -1.39062,-0.28125 -0.48438,-0.28125 -0.6875,-0.73438 -0.20313,-0.46875 -0.20313,-1.9375 v -5.57812 h -1.20312 v -1.26563 h 1.20312 v -2.39062 l 1.625,-0.98438 v 3.375 h 1.65625 v 1.26563 h -1.65625 v 5.67187 q 0,0.6875 0.0781,0.89063 0.0937,0.20312 0.28125,0.32812 0.20312,0.10938 0.57812,0.10938 0.26563,0 0.71875,-0.0625 z m 0.94892,-1.42188 1.625,-0.25 q 0.125,0.96875 0.75,1.5 0.625,0.51563 1.75,0.51563 1.125,0 1.67187,-0.45313 0.54688,-0.46875 0.54688,-1.09375 0,-0.54687 -0.48438,-0.875 -0.32812,-0.21875 -1.67187,-0.54687 -1.8125,-0.46875 -2.51563,-0.79688 -0.6875,-0.32812 -1.04687,-0.90625 -0.35938,-0.59375 -0.35938,-1.3125 0,-0.64062 0.29688,-1.1875 0.29687,-0.5625 0.8125,-0.92187 0.375,-0.28125 1.03125,-0.46875 0.67187,-0.20313 1.42187,-0.20313 1.14063,0 2,0.32813 0.85938,0.32812 1.26563,0.89062 0.42187,0.5625 0.57812,1.5 l -1.60937,0.21875 q -0.10938,-0.75 -0.64063,-1.17187 -0.51562,-0.42188 -1.46875,-0.42188 -1.14062,0 -1.625,0.375 -0.46875,0.375 -0.46875,0.875 0,0.3125 0.1875,0.57813 0.20313,0.26562 0.64063,0.4375 0.23437,0.0937 1.4375,0.42187 1.75,0.45313 2.4375,0.75 0.6875,0.29688 1.07812,0.85938 0.39063,0.5625 0.39063,1.40625 0,0.82812 -0.48438,1.54687 -0.46875,0.71875 -1.375,1.125 -0.90625,0.39063 -2.04687,0.39063 -1.875,0 -2.875,-0.78125 -0.98438,-0.78125 -1.25,-2.32813 z"
       id="path75"
       inkscape:connector-curvature="0"
       style="fill:#000000;fill-rule:nonzero" />
    <path
       d="m 700.12335,379.1391 h 162.70868 v 42.01575 H 700.12335 Z"
       id="path77"
       inkscape:connector-curvature="0"
       style="fill:#000000;fill-opacity:0;fill-rule:evenodd" />
    <path
       d="m 710.3577,394.59036 v -1.89063 h 1.64063 v 1.89063 z m 0,11.46875 v -9.67188 h 1.64063 v 9.67188 z m 4.14484,0 v -9.67188 h 1.46875 v 1.35938 q 0.45312,-0.71875 1.20312,-1.14063 0.76563,-0.4375 1.71875,-0.4375 1.07813,0 1.76563,0.45313 0.6875,0.4375 0.96875,1.23437 1.15625,-1.6875 2.98437,-1.6875 1.45313,0 2.21875,0.79688 0.78125,0.79687 0.78125,2.45312 v 6.64063 h -1.64062 v -6.09375 q 0,-0.98438 -0.15625,-1.40625 -0.15625,-0.4375 -0.57813,-0.70313 -0.42187,-0.26562 -0.98437,-0.26562 -1.01563,0 -1.6875,0.6875 -0.67188,0.67187 -0.67188,2.15625 v 5.625 h -1.64062 v -6.28125 q 0,-1.09375 -0.40625,-1.64063 -0.40625,-0.54687 -1.3125,-0.54687 -0.6875,0 -1.28125,0.35937 -0.59375,0.35938 -0.85938,1.0625 -0.25,0.70313 -0.25,2.03125 v 5.01563 z m 21.85327,-1.1875 q -0.92188,0.76562 -1.76563,1.09375 -0.82812,0.3125 -1.79687,0.3125 -1.59375,0 -2.45313,-0.78125 -0.85937,-0.78125 -0.85937,-1.98438 0,-0.71875 0.32812,-1.29687 0.32813,-0.59375 0.84375,-0.9375 0.53125,-0.35938 1.1875,-0.54688 0.46875,-0.125 1.45313,-0.25 1.98437,-0.23437 2.92187,-0.5625 0.0156,-0.34375 0.0156,-0.42187 0,-1 -0.46875,-1.42188 -0.625,-0.54687 -1.875,-0.54687 -1.15625,0 -1.70313,0.40625 -0.54687,0.40625 -0.8125,1.42187 l -1.60937,-0.21875 q 0.21875,-1.01562 0.71875,-1.64062 0.5,-0.64063 1.45312,-0.98438 0.95313,-0.34375 2.1875,-0.34375 1.25,0 2.01563,0.29688 0.78125,0.28125 1.14062,0.73437 0.375,0.4375 0.51563,1.10938 0.0781,0.42187 0.0781,1.51562 v 2.1875 q 0,2.28125 0.10938,2.89063 0.10937,0.59375 0.40625,1.15625 h -1.70313 q -0.26562,-0.51563 -0.32812,-1.1875 z m -0.14063,-3.67188 q -0.89062,0.375 -2.67187,0.625 -1.01563,0.14063 -1.4375,0.32813 -0.42188,0.1875 -0.65625,0.53125 -0.21875,0.34375 -0.21875,0.78125 0,0.65625 0.5,1.09375 0.5,0.4375 1.45312,0.4375 0.9375,0 1.67188,-0.40625 0.75,-0.42188 1.09375,-1.14063 0.26562,-0.5625 0.26562,-1.64062 z m 3.89136,5.65625 1.59375,0.23438 q 0.10937,0.75 0.5625,1.07812 0.60937,0.45313 1.67187,0.45313 1.14063,0 1.75,-0.45313 0.625,-0.45312 0.84375,-1.26562 0.125,-0.5 0.10938,-2.10938 -1.0625,1.26563 -2.67188,1.26563 -2,0 -3.09375,-1.4375 -1.09375,-1.4375 -1.09375,-3.45313 0,-1.39062 0.5,-2.5625 0.51563,-1.17187 1.45313,-1.79687 0.95312,-0.64063 2.25,-0.64063 1.70312,0 2.8125,1.375 v -1.15625 h 1.51562 v 8.35938 q 0,2.26562 -0.46875,3.20312 -0.45312,0.9375 -1.45312,1.48438 -0.98438,0.54687 -2.45313,0.54687 -1.71875,0 -2.79687,-0.78125 -1.0625,-0.76562 -1.03125,-2.34375 z m 1.35937,-5.8125 q 0,1.90625 0.75,2.78125 0.76563,0.875 1.90625,0.875 1.125,0 1.89063,-0.85937 0.76562,-0.875 0.76562,-2.73438 0,-1.78125 -0.79687,-2.67187 -0.78125,-0.90625 -1.89063,-0.90625 -1.09375,0 -1.85937,0.89062 -0.76563,0.875 -0.76563,2.625 z m 15.95386,1.90625 1.6875,0.20313 q -0.40625,1.48437 -1.48437,2.3125 -1.07813,0.8125 -2.76563,0.8125 -2.125,0 -3.375,-1.29688 -1.23437,-1.3125 -1.23437,-3.67187 0,-2.45313 1.25,-3.79688 1.26562,-1.34375 3.26562,-1.34375 1.9375,0 3.15625,1.32813 1.23438,1.3125 1.23438,3.70312 0,0.15625 0,0.4375 h -7.21875 q 0.0937,1.59375 0.90625,2.45313 0.8125,0.84375 2.01562,0.84375 0.90625,0 1.54688,-0.46875 0.64062,-0.48438 1.01562,-1.51563 z m -5.39062,-2.65625 h 5.40625 q -0.10938,-1.21875 -0.625,-1.82812 -0.78125,-0.95313 -2.03125,-0.95313 -1.125,0 -1.90625,0.76563 -0.76563,0.75 -0.84375,2.01562 z m 8.4851,2.875 1.625,-0.25 q 0.125,0.96875 0.75,1.5 0.625,0.51563 1.75,0.51563 1.125,0 1.67188,-0.45313 0.54687,-0.46875 0.54687,-1.09375 0,-0.54687 -0.48437,-0.875 -0.32813,-0.21875 -1.67188,-0.54687 -1.8125,-0.46875 -2.51562,-0.79688 -0.6875,-0.32812 -1.04688,-0.90625 -0.35937,-0.59375 -0.35937,-1.3125 0,-0.64062 0.29687,-1.1875 0.29688,-0.5625 0.8125,-0.92187 0.375,-0.28125 1.03125,-0.46875 0.67188,-0.20313 1.42188,-0.20313 1.14062,0 2,0.32813 0.85937,0.32812 1.26562,0.89062 0.42188,0.5625 0.57813,1.5 l -1.60938,0.21875 q -0.10937,-0.75 -0.64062,-1.17187 -0.51563,-0.42188 -1.46875,-0.42188 -1.14063,0 -1.625,0.375 -0.46875,0.375 -0.46875,0.875 0,0.3125 0.1875,0.57813 0.20312,0.26562 0.64062,0.4375 0.23438,0.0937 1.4375,0.42187 1.75,0.45313 2.4375,0.75 0.6875,0.29688 1.07813,0.85938 0.39062,0.5625 0.39062,1.40625 0,0.82812 -0.48437,1.54687 -0.46875,0.71875 -1.375,1.125 -0.90625,0.39063 -2.04688,0.39063 -1.875,0 -2.875,-0.78125 -0.98437,-0.78125 -1.25,-2.32813 z"
       id="path79"
       inkscape:connector-curvature="0"
       style="fill:#000000;fill-rule:nonzero" />
    <path
       d="m 377.12073,314.5092 h 205.7638 v 64.62991 h -205.7638 z"
       id="path81"
       inkscape:connector-curvature="0"
       style="fill:#000000;fill-opacity:0;fill-rule:evenodd" />
    <path
       d="m 386.4801,341.4292 v -1.32813 l 6.15625,-7.07812 q -1.04688,0.0625 -1.84375,0.0625 h -3.9375 v -1.32813 h 7.90625 v 1.07813 l -5.25,6.14062 -1,1.125 q 1.09375,-0.0781 2.0625,-0.0781 h 4.46875 v 1.40625 z m 9.59375,-4.84375 q 0,-2.6875 1.48437,-3.96875 1.25,-1.07813 3.04688,-1.07813 2,0 3.26562,1.3125 1.26563,1.29688 1.26563,3.60938 0,1.85937 -0.5625,2.9375 -0.5625,1.0625 -1.64063,1.65625 -1.0625,0.59375 -2.32812,0.59375 -2.03125,0 -3.28125,-1.29688 -1.25,-1.3125 -1.25,-3.76562 z m 1.6875,0 q 0,1.85937 0.79687,2.79687 0.8125,0.92188 2.04688,0.92188 1.21875,0 2.03125,-0.92188 0.8125,-0.9375 0.8125,-2.84375 0,-1.79687 -0.8125,-2.71875 -0.8125,-0.92187 -2.03125,-0.92187 -1.23438,0 -2.04688,0.92187 -0.79687,0.90625 -0.79687,2.76563 z m 9.29758,4.84375 v -9.67188 h 1.46875 v 1.375 q 1.0625,-1.59375 3.07812,-1.59375 0.875,0 1.60938,0.3125 0.73437,0.3125 1.09375,0.82813 0.375,0.5 0.51562,1.20312 0.0937,0.45313 0.0937,1.59375 v 5.95313 h -1.64062 v -5.89063 q 0,-1 -0.20313,-1.48437 -0.1875,-0.5 -0.67187,-0.79688 -0.48438,-0.29687 -1.14063,-0.29687 -1.04687,0 -1.8125,0.67187 -0.75,0.65625 -0.75,2.51563 v 5.28125 z m 17.00073,-3.10938 1.6875,0.20313 q -0.40625,1.48437 -1.48438,2.3125 -1.07812,0.8125 -2.76562,0.8125 -2.125,0 -3.375,-1.29688 -1.23438,-1.3125 -1.23438,-3.67187 0,-2.45313 1.25,-3.79688 1.26563,-1.34375 3.26563,-1.34375 1.9375,0 3.15625,1.32813 1.23437,1.3125 1.23437,3.70312 0,0.15625 0,0.4375 h -7.21875 q 0.0937,1.59375 0.90625,2.45313 0.8125,0.84375 2.01563,0.84375 0.90625,0 1.54687,-0.46875 0.64063,-0.48438 1.01563,-1.51563 z m -5.39063,-2.65625 h 5.40625 q -0.10937,-1.21875 -0.625,-1.82812 -0.78125,-0.95313 -2.03125,-0.95313 -1.125,0 -1.90625,0.76563 -0.76562,0.75 -0.84375,2.01562 z m 8.48508,2.875 1.625,-0.25 q 0.125,0.96875 0.75,1.5 0.625,0.51563 1.75,0.51563 1.125,0 1.67188,-0.45313 0.54687,-0.46875 0.54687,-1.09375 0,-0.54687 -0.48437,-0.875 -0.32813,-0.21875 -1.67188,-0.54687 -1.8125,-0.46875 -2.51562,-0.79688 -0.6875,-0.32812 -1.04688,-0.90625 -0.35937,-0.59375 -0.35937,-1.3125 0,-0.64062 0.29687,-1.1875 0.29688,-0.5625 0.8125,-0.92187 0.375,-0.28125 1.03125,-0.46875 0.67188,-0.20313 1.42188,-0.20313 1.14062,0 2,0.32813 0.85937,0.32812 1.26562,0.89062 0.42188,0.5625 0.57813,1.5 l -1.60938,0.21875 q -0.10937,-0.75 -0.64062,-1.17187 -0.51563,-0.42188 -1.46875,-0.42188 -1.14063,0 -1.625,0.375 -0.46875,0.375 -0.46875,0.875 0,0.3125 0.1875,0.57813 0.20312,0.26562 0.64062,0.4375 0.23438,0.0937 1.4375,0.42187 1.75,0.45313 2.4375,0.75 0.6875,0.29688 1.07813,0.85938 0.39062,0.5625 0.39062,1.40625 0,0.82812 -0.48437,1.54687 -0.46875,0.71875 -1.375,1.125 -0.90625,0.39063 -2.04688,0.39063 -1.875,0 -2.875,-0.78125 -0.98437,-0.78125 -1.25,-2.32813 z m 21.43332,2.89063 v -1.21875 q -0.90625,1.4375 -2.70312,1.4375 -1.15625,0 -2.125,-0.64063 -0.96875,-0.64062 -1.5,-1.78125 -0.53125,-1.14062 -0.53125,-2.625 0,-1.45312 0.48437,-2.625 0.48438,-1.1875 1.4375,-1.8125 0.96875,-0.625 2.17188,-0.625 0.875,0 1.54687,0.375 0.6875,0.35938 1.10938,0.95313 v -4.79688 h 1.64062 v 13.35938 z m -5.17187,-4.82813 q 0,1.85938 0.78125,2.78125 0.78125,0.92188 1.84375,0.92188 1.07812,0 1.82812,-0.875 0.75,-0.89063 0.75,-2.6875 0,-1.98438 -0.76562,-2.90625 -0.76563,-0.9375 -1.89063,-0.9375 -1.07812,0 -1.8125,0.89062 -0.73437,0.89063 -0.73437,2.8125 z m 15.90695,1.71875 1.6875,0.20313 q -0.40625,1.48437 -1.48438,2.3125 -1.07812,0.8125 -2.76562,0.8125 -2.125,0 -3.375,-1.29688 -1.23438,-1.3125 -1.23438,-3.67187 0,-2.45313 1.25,-3.79688 1.26563,-1.34375 3.26563,-1.34375 1.9375,0 3.15625,1.32813 1.23437,1.3125 1.23437,3.70312 0,0.15625 0,0.4375 h -7.21875 q 0.0937,1.59375 0.90625,2.45313 0.8125,0.84375 2.01563,0.84375 0.90625,0 1.54687,-0.46875 0.64063,-0.48438 1.01563,-1.51563 z m -5.39063,-2.65625 h 5.40625 q -0.10937,-1.21875 -0.625,-1.82812 -0.78125,-0.95313 -2.03125,-0.95313 -1.125,0 -1.90625,0.76563 -0.76562,0.75 -0.84375,2.01562 z m 14.32465,5.76563 v -9.67188 h 1.46875 v 1.375 q 1.0625,-1.59375 3.07812,-1.59375 0.875,0 1.60938,0.3125 0.73437,0.3125 1.09375,0.82813 0.375,0.5 0.51562,1.20312 0.0937,0.45313 0.0937,1.59375 v 5.95313 h -1.64062 v -5.89063 q 0,-1 -0.20313,-1.48437 -0.1875,-0.5 -0.67187,-0.79688 -0.48438,-0.29687 -1.14063,-0.29687 -1.04687,0 -1.8125,0.67187 -0.75,0.65625 -0.75,2.51563 v 5.28125 z m 9.76636,-4.84375 q 0,-2.6875 1.48437,-3.96875 1.25,-1.07813 3.04688,-1.07813 2,0 3.26562,1.3125 1.26563,1.29688 1.26563,3.60938 0,1.85937 -0.5625,2.9375 -0.5625,1.0625 -1.64063,1.65625 -1.0625,0.59375 -2.32812,0.59375 -2.03125,0 -3.28125,-1.29688 -1.25,-1.3125 -1.25,-3.76562 z m 1.6875,0 q 0,1.85937 0.79687,2.79687 0.8125,0.92188 2.04688,0.92188 1.21875,0 2.03125,-0.92188 0.8125,-0.9375 0.8125,-2.84375 0,-1.79687 -0.8125,-2.71875 -0.8125,-0.92187 -2.03125,-0.92187 -1.23438,0 -2.04688,0.92187 -0.79687,0.90625 -0.79687,2.76563 z m 15.6257,4.84375 v -1.42188 q -1.125,1.64063 -3.0625,1.64063 -0.85938,0 -1.60938,-0.32813 -0.73437,-0.32812 -1.09375,-0.82812 -0.35937,-0.5 -0.5,-1.21875 -0.10937,-0.46875 -0.10937,-1.53125 v -5.98438 h 1.64062 v 5.35938 q 0,1.28125 0.10938,1.73437 0.15625,0.64063 0.65625,1.01563 0.5,0.375 1.23437,0.375 0.73438,0 1.375,-0.375 0.65625,-0.39063 0.92188,-1.03125 0.26562,-0.65625 0.26562,-1.89063 v -5.1875 h 1.64063 v 9.67188 z m 6.73511,0 -3.6875,-9.67188 h 1.73437 l 2.07813,5.79688 q 0.32812,0.9375 0.625,1.9375 0.20312,-0.76563 0.60937,-1.82813 l 2.14063,-5.90625 h 1.6875 l -3.65625,9.67188 z m 13.26559,-3.10938 1.6875,0.20313 q -0.40625,1.48437 -1.48438,2.3125 -1.07812,0.8125 -2.76562,0.8125 -2.12497,0 -3.37497,-1.29688 -1.23437,-1.3125 -1.23437,-3.67187 0,-2.45313 1.25,-3.79688 1.26562,-1.34375 3.26559,-1.34375 1.9375,0 3.15625,1.32813 1.23437,1.3125 1.23437,3.70312 0,0.15625 0,0.4375 h -7.21871 q 0.0937,1.59375 0.90625,2.45313 0.8125,0.84375 2.01559,0.84375 0.90625,0 1.54687,-0.46875 0.64063,-0.48438 1.01563,-1.51563 z m -5.39059,-2.65625 h 5.40621 q -0.10937,-1.21875 -0.625,-1.82812 -0.78125,-0.95313 -2.03125,-0.95313 -1.12496,0 -1.90621,0.76563 -0.76563,0.75 -0.84375,2.01562 z m 15.45382,4.57813 q -0.92187,0.76562 -1.76562,1.09375 -0.82813,0.3125 -1.79688,0.3125 -1.59375,0 -2.45312,-0.78125 -0.85938,-0.78125 -0.85938,-1.98438 0,-0.71875 0.32813,-1.29687 0.32812,-0.59375 0.84375,-0.9375 0.53125,-0.35938 1.1875,-0.54688 0.46875,-0.125 1.45312,-0.25 1.98438,-0.23437 2.92188,-0.5625 0.0156,-0.34375 0.0156,-0.42187 0,-1 -0.46875,-1.42188 -0.625,-0.54687 -1.875,-0.54687 -1.15625,0 -1.70312,0.40625 -0.54688,0.40625 -0.8125,1.42187 l -1.60938,-0.21875 q 0.21875,-1.01562 0.71875,-1.64062 0.5,-0.64063 1.45313,-0.98438 0.95312,-0.34375 2.1875,-0.34375 1.25,0 2.01562,0.29688 0.78125,0.28125 1.14063,0.73437 0.375,0.4375 0.51562,1.10938 0.0781,0.42187 0.0781,1.51562 v 2.1875 q 0,2.28125 0.10937,2.89063 0.10938,0.59375 0.40625,1.15625 h -1.70312 q -0.26563,-0.51563 -0.32813,-1.1875 z m -0.14062,-3.67188 q -0.89063,0.375 -2.67188,0.625 -1.01562,0.14063 -1.4375,0.32813 -0.42187,0.1875 -0.65625,0.53125 -0.21875,0.34375 -0.21875,0.78125 0,0.65625 0.5,1.09375 0.5,0.4375 1.45313,0.4375 0.9375,0 1.67187,-0.40625 0.75,-0.42188 1.09375,-1.14063 0.26563,-0.5625 0.26563,-1.64062 z m 10.53198,4.85938 v -1.42188 q -1.125,1.64063 -3.0625,1.64063 -0.85938,0 -1.60938,-0.32813 -0.73437,-0.32812 -1.09375,-0.82812 -0.35937,-0.5 -0.5,-1.21875 -0.10937,-0.46875 -0.10937,-1.53125 v -5.98438 h 1.64062 v 5.35938 q 0,1.28125 0.10938,1.73437 0.15625,0.64063 0.65625,1.01563 0.5,0.375 1.23437,0.375 0.73438,0 1.375,-0.375 0.65625,-0.39063 0.92188,-1.03125 0.26562,-0.65625 0.26562,-1.89063 v -5.1875 h 1.64063 v 9.67188 z m 7.62573,-1.46875 0.23438,1.45312 q -0.6875,0.14063 -1.23438,0.14063 -0.89062,0 -1.39062,-0.28125 -0.48438,-0.28125 -0.6875,-0.73438 -0.20313,-0.46875 -0.20313,-1.9375 v -5.57812 h -1.20312 v -1.26563 h 1.20312 v -2.39062 l 1.625,-0.98438 v 3.375 h 1.65625 v 1.26563 h -1.65625 v 5.67187 q 0,0.6875 0.0781,0.89063 0.0937,0.20312 0.28125,0.32812 0.20312,0.10938 0.57812,0.10938 0.26563,0 0.71875,-0.0625 z m 8.23017,-1.64063 1.6875,0.20313 q -0.40625,1.48437 -1.48438,2.3125 -1.07812,0.8125 -2.76562,0.8125 -2.125,0 -3.375,-1.29688 -1.23438,-1.3125 -1.23438,-3.67187 0,-2.45313 1.25,-3.79688 1.26563,-1.34375 3.26563,-1.34375 1.9375,0 3.15625,1.32813 1.23437,1.3125 1.23437,3.70312 0,0.15625 0,0.4375 h -7.21875 q 0.0937,1.59375 0.90625,2.45313 0.8125,0.84375 2.01563,0.84375 0.90625,0 1.54687,-0.46875 0.64063,-0.48438 1.01563,-1.51563 z m -5.39063,-2.65625 h 5.40625 q -0.10937,-1.21875 -0.625,-1.82812 -0.78125,-0.95313 -2.03125,-0.95313 -1.125,0 -1.90625,0.76563 -0.76562,0.75 -0.84375,2.01562 z m 1.76563,-5.10937 1.21875,-2.54688 h 2.15625 l -2.01563,2.54688 z"
       id="path83"
       inkscape:connector-curvature="0"
       style="fill:#000000;fill-rule:nonzero" />
    <path
       d="m 387.3551,367.53232 v -13.375 h 1.48437 v 1.25 q 0.53125,-0.73437 1.1875,-1.09375 0.67188,-0.375 1.625,-0.375 1.23438,0 2.17188,0.64063 0.95312,0.625 1.4375,1.79687 0.48437,1.15625 0.48437,2.54688 0,1.48437 -0.53125,2.67187 -0.53125,1.1875 -1.54687,1.82813 -1.01563,0.625 -2.14063,0.625 -0.8125,0 -1.46875,-0.34375 -0.65625,-0.34375 -1.0625,-0.875 v 4.70312 z m 1.48437,-8.48437 q 0,1.85937 0.75,2.76562 0.76563,0.89063 1.82813,0.89063 1.09375,0 1.875,-0.92188 0.78125,-0.9375 0.78125,-2.875 0,-1.84375 -0.76563,-2.76562 -0.75,-0.92188 -1.8125,-0.92188 -1.04687,0 -1.85937,0.98438 -0.79688,0.96875 -0.79688,2.84375 z m 8.28196,-0.0625 q 0,-2.6875 1.48437,-3.96875 1.25,-1.07813 3.04688,-1.07813 2,0 3.26562,1.3125 1.26563,1.29688 1.26563,3.60938 0,1.85937 -0.5625,2.9375 -0.5625,1.0625 -1.64063,1.65625 -1.0625,0.59375 -2.32812,0.59375 -2.03125,0 -3.28125,-1.29688 -1.25,-1.3125 -1.25,-3.76562 z m 1.6875,0 q 0,1.85937 0.79687,2.79687 0.8125,0.92188 2.04688,0.92188 1.21875,0 2.03125,-0.92188 0.8125,-0.9375 0.8125,-2.84375 0,-1.79687 -0.8125,-2.71875 -0.8125,-0.92187 -2.03125,-0.92187 -1.23438,0 -2.04688,0.92187 -0.79687,0.90625 -0.79687,2.76563 z m 8.64135,1.95312 1.625,-0.25 q 0.125,0.96875 0.75,1.5 0.625,0.51563 1.75,0.51563 1.125,0 1.67188,-0.45313 0.54687,-0.46875 0.54687,-1.09375 0,-0.54687 -0.48437,-0.875 -0.32813,-0.21875 -1.67188,-0.54687 -1.8125,-0.46875 -2.51562,-0.79688 -0.6875,-0.32812 -1.04688,-0.90625 -0.35937,-0.59375 -0.35937,-1.3125 0,-0.64062 0.29687,-1.1875 0.29688,-0.5625 0.8125,-0.92187 0.375,-0.28125 1.03125,-0.46875 0.67188,-0.20313 1.42188,-0.20313 1.14062,0 2,0.32813 0.85937,0.32812 1.26562,0.89062 0.42188,0.5625 0.57813,1.5 l -1.60938,0.21875 q -0.10937,-0.75 -0.64062,-1.17187 -0.51563,-0.42188 -1.46875,-0.42188 -1.14063,0 -1.625,0.375 -0.46875,0.375 -0.46875,0.875 0,0.3125 0.1875,0.57813 0.20312,0.26562 0.64062,0.4375 0.23438,0.0937 1.4375,0.42187 1.75,0.45313 2.4375,0.75 0.6875,0.29688 1.07813,0.85938 0.39062,0.5625 0.39062,1.40625 0,0.82812 -0.48437,1.54687 -0.46875,0.71875 -1.375,1.125 -0.90625,0.39063 -2.04688,0.39063 -1.875,0 -2.875,-0.78125 -0.98437,-0.78125 -1.25,-2.32813 z m 9.32813,0 1.625,-0.25 q 0.125,0.96875 0.75,1.5 0.625,0.51563 1.75,0.51563 1.125,0 1.67187,-0.45313 0.54688,-0.46875 0.54688,-1.09375 0,-0.54687 -0.48438,-0.875 -0.32812,-0.21875 -1.67187,-0.54687 -1.8125,-0.46875 -2.51563,-0.79688 -0.6875,-0.32812 -1.04687,-0.90625 -0.35938,-0.59375 -0.35938,-1.3125 0,-0.64062 0.29688,-1.1875 0.29687,-0.5625 0.8125,-0.92187 0.375,-0.28125 1.03125,-0.46875 0.67187,-0.20313 1.42187,-0.20313 1.14063,0 2,0.32813 0.85938,0.32812 1.26563,0.89062 0.42187,0.5625 0.57812,1.5 l -1.60937,0.21875 q -0.10938,-0.75 -0.64063,-1.17187 -0.51562,-0.42188 -1.46875,-0.42188 -1.14062,0 -1.625,0.375 -0.46875,0.375 -0.46875,0.875 0,0.3125 0.1875,0.57813 0.20313,0.26562 0.64063,0.4375 0.23437,0.0937 1.4375,0.42187 1.75,0.45313 2.4375,0.75 0.6875,0.29688 1.07812,0.85938 0.39063,0.5625 0.39063,1.40625 0,0.82812 -0.48438,1.54687 -0.46875,0.71875 -1.375,1.125 -0.90625,0.39063 -2.04687,0.39063 -1.875,0 -2.875,-0.78125 -0.98438,-0.78125 -1.25,-2.32813 z m 9.98437,-8.57812 v -1.89063 h 1.64063 v 1.89063 z m 0,11.46875 v -9.67188 h 1.64063 v 9.67188 z m 5.64481,0 h -1.51562 v -13.35938 h 1.64062 v 4.76563 q 1.04688,-1.29688 2.65625,-1.29688 0.89063,0 1.6875,0.35938 0.79688,0.35937 1.3125,1.01562 0.51563,0.64063 0.79688,1.5625 0.29687,0.92188 0.29687,1.96875 0,2.48438 -1.23437,3.84375 -1.21875,1.35938 -2.95313,1.35938 -1.70312,0 -2.6875,-1.4375 z m -0.0156,-4.90625 q 0,1.73437 0.48437,2.51562 0.76563,1.26563 2.09375,1.26563 1.07813,0 1.85938,-0.9375 0.78125,-0.9375 0.78125,-2.78125 0,-1.89063 -0.75,-2.79688 -0.75,-0.90625 -1.82813,-0.90625 -1.0625,0 -1.85937,0.9375 -0.78125,0.9375 -0.78125,2.70313 z m 8.84448,4.90625 v -13.35938 h 1.64062 v 13.35938 z m 10.81668,-3.10938 1.6875,0.20313 q -0.40625,1.48437 -1.48438,2.3125 -1.07812,0.8125 -2.76562,0.8125 -2.125,0 -3.375,-1.29688 -1.23438,-1.3125 -1.23438,-3.67187 0,-2.45313 1.25,-3.79688 1.26563,-1.34375 3.26563,-1.34375 1.9375,0 3.15625,1.32813 1.23437,1.3125 1.23437,3.70312 0,0.15625 0,0.4375 h -7.21875 q 0.0937,1.59375 0.90625,2.45313 0.8125,0.84375 2.01563,0.84375 0.90625,0 1.54687,-0.46875 0.64063,-0.48438 1.01563,-1.51563 z m -5.39063,-2.65625 h 5.40625 q -0.10937,-1.21875 -0.625,-1.82812 -0.78125,-0.95313 -2.03125,-0.95313 -1.125,0 -1.90625,0.76563 -0.76562,0.75 -0.84375,2.01562 z m 8.48511,2.875 1.625,-0.25 q 0.125,0.96875 0.75,1.5 0.625,0.51563 1.75,0.51563 1.125,0 1.67187,-0.45313 0.54688,-0.46875 0.54688,-1.09375 0,-0.54687 -0.48438,-0.875 -0.32812,-0.21875 -1.67187,-0.54687 -1.8125,-0.46875 -2.51563,-0.79688 -0.6875,-0.32812 -1.04687,-0.90625 -0.35938,-0.59375 -0.35938,-1.3125 0,-0.64062 0.29688,-1.1875 0.29687,-0.5625 0.8125,-0.92187 0.375,-0.28125 1.03125,-0.46875 0.67187,-0.20313 1.42187,-0.20313 1.14063,0 2,0.32813 0.85938,0.32812 1.26563,0.89062 0.42187,0.5625 0.57812,1.5 l -1.60937,0.21875 q -0.10938,-0.75 -0.64063,-1.17187 -0.51562,-0.42188 -1.46875,-0.42188 -1.14062,0 -1.625,0.375 -0.46875,0.375 -0.46875,0.875 0,0.3125 0.1875,0.57813 0.20313,0.26562 0.64063,0.4375 0.23437,0.0937 1.4375,0.42187 1.75,0.45313 2.4375,0.75 0.6875,0.29688 1.07812,0.85938 0.39063,0.5625 0.39063,1.40625 0,0.82812 -0.48438,1.54687 -0.46875,0.71875 -1.375,1.125 -0.90625,0.39063 -2.04687,0.39063 -1.875,0 -2.875,-0.78125 -0.98438,-0.78125 -1.25,-2.32813 z"
       id="path85"
       inkscape:connector-curvature="0"
       style="fill:#000000;fill-rule:nonzero" />
    <path
       d="m 590.0761,141.69292 h 272.75592 v 42.01575 H 590.0761 Z"
       id="path87"
       inkscape:connector-curvature="0"
       style="fill:#000000;fill-opacity:0;fill-rule:evenodd" />
    <path
       d="m 606.623,165.06604 1.60938,0.21875 q -0.26563,1.65625 -1.35938,2.60937 -1.07812,0.9375 -2.67187,0.9375 -1.98438,0 -3.1875,-1.29687 -1.20313,-1.29688 -1.20313,-3.71875 0,-1.57813 0.51563,-2.75 0.51562,-1.17188 1.57812,-1.75 1.0625,-0.59375 2.3125,-0.59375 1.57813,0 2.57813,0.79687 1,0.79688 1.28125,2.26563 l -1.59375,0.23437 q -0.23438,-0.96875 -0.8125,-1.45312 -0.57813,-0.5 -1.39063,-0.5 -1.23437,0 -2.01562,0.89062 -0.78125,0.89063 -0.78125,2.8125 0,1.95313 0.75,2.84375 0.75,0.875 1.95312,0.875 0.96875,0 1.60938,-0.59375 0.65625,-0.59375 0.82812,-1.82812 z m 2.40625,-1.29688 q 0,-2.6875 1.48438,-3.96875 1.25,-1.07812 3.04687,-1.07812 2,0 3.26563,1.3125 1.26562,1.29687 1.26562,3.60937 0,1.85938 -0.5625,2.9375 -0.5625,1.0625 -1.64062,1.65625 -1.0625,0.59375 -2.32813,0.59375 -2.03125,0 -3.28125,-1.29687 -1.25,-1.3125 -1.25,-3.76563 z m 1.6875,0 q 0,1.85938 0.79688,2.79688 0.8125,0.92187 2.04687,0.92187 1.21875,0 2.03125,-0.92187 0.8125,-0.9375 0.8125,-2.84375 0,-1.79688 -0.8125,-2.71875 -0.8125,-0.92188 -2.03125,-0.92188 -1.23437,0 -2.04687,0.92188 -0.79688,0.90625 -0.79688,2.76562 z m 9.29761,4.84375 v -9.67187 h 1.46875 v 1.375 q 1.0625,-1.59375 3.07812,-1.59375 0.875,0 1.60938,0.3125 0.73437,0.3125 1.09375,0.82812 0.375,0.5 0.51562,1.20313 0.0937,0.45312 0.0937,1.59375 v 5.95312 h -1.64062 v -5.89062 q 0,-1 -0.20313,-1.48438 -0.1875,-0.5 -0.67187,-0.79687 -0.48438,-0.29688 -1.14063,-0.29688 -1.04687,0 -1.8125,0.67188 -0.75,0.65625 -0.75,2.51562 v 5.28125 z m 13.95385,-1.46875 0.23438,1.45313 q -0.6875,0.14062 -1.23438,0.14062 -0.89062,0 -1.39062,-0.28125 -0.48438,-0.28125 -0.6875,-0.73437 -0.20313,-0.46875 -0.20313,-1.9375 v -5.57813 h -1.20312 v -1.26562 h 1.20312 v -2.39063 l 1.625,-0.98437 v 3.375 h 1.65625 v 1.26562 h -1.65625 v 5.67188 q 0,0.6875 0.0781,0.89062 0.0937,0.20313 0.28125,0.32813 0.20312,0.10937 0.57812,0.10937 0.26563,0 0.71875,-0.0625 z m 1.58954,1.46875 v -9.67187 h 1.46875 v 1.46875 q 0.5625,-1.03125 1.03125,-1.35938 0.48438,-0.32812 1.0625,-0.32812 0.82813,0 1.6875,0.53125 l -0.5625,1.51562 q -0.60937,-0.35937 -1.20312,-0.35937 -0.54688,0 -0.96875,0.32812 -0.42188,0.32813 -0.60938,0.89063 -0.28125,0.875 -0.28125,1.92187 v 5.0625 z m 5.6189,-4.84375 q 0,-2.6875 1.48437,-3.96875 1.25,-1.07812 3.04688,-1.07812 2,0 3.26562,1.3125 1.26563,1.29687 1.26563,3.60937 0,1.85938 -0.5625,2.9375 -0.5625,1.0625 -1.64063,1.65625 -1.0625,0.59375 -2.32812,0.59375 -2.03125,0 -3.28125,-1.29687 -1.25,-1.3125 -1.25,-3.76563 z m 1.6875,0 q 0,1.85938 0.79687,2.79688 0.8125,0.92187 2.04688,0.92187 1.21875,0 2.03125,-0.92187 0.8125,-0.9375 0.8125,-2.84375 0,-1.79688 -0.8125,-2.71875 -0.8125,-0.92188 -2.03125,-0.92188 -1.23438,0 -2.04688,0.92188 -0.79687,0.90625 -0.79687,2.76562 z m 2.875,-7.57812 -1.03125,1.54687 h -1.875 l 1.96875,-2.54687 h 1.73437 l 2.0625,2.54687 h -1.85937 z m 6.37573,12.42187 v -13.35937 h 1.64063 v 13.35937 z m 10.81671,-3.10937 1.6875,0.20312 q -0.40625,1.48438 -1.48437,2.3125 -1.07813,0.8125 -2.76563,0.8125 -2.125,0 -3.375,-1.29687 -1.23437,-1.3125 -1.23437,-3.67188 0,-2.45312 1.25,-3.79687 1.26562,-1.34375 3.26562,-1.34375 1.9375,0 3.15625,1.32812 1.23438,1.3125 1.23438,3.70313 0,0.15625 0,0.4375 h -7.21875 q 0.0937,1.59375 0.90625,2.45312 0.8125,0.84375 2.01562,0.84375 0.90625,0 1.54688,-0.46875 0.64062,-0.48437 1.01562,-1.51562 z m -5.39062,-2.65625 h 5.40625 q -0.10938,-1.21875 -0.625,-1.82813 -0.78125,-0.95312 -2.03125,-0.95312 -1.125,0 -1.90625,0.76562 -0.76563,0.75 -0.84375,2.01563 z m 20.59027,5.76562 v -1.21875 q -0.90625,1.4375 -2.70313,1.4375 -1.15625,0 -2.125,-0.64062 -0.96875,-0.64063 -1.5,-1.78125 -0.53125,-1.14063 -0.53125,-2.625 0,-1.45313 0.48438,-2.625 0.48437,-1.1875 1.4375,-1.8125 0.96875,-0.625 2.17187,-0.625 0.875,0 1.54688,0.375 0.6875,0.35937 1.10937,0.95312 v -4.79687 h 1.64063 v 13.35937 z m -5.17188,-4.82812 q 0,1.85937 0.78125,2.78125 0.78125,0.92187 1.84375,0.92187 1.07813,0 1.82813,-0.875 0.75,-0.89062 0.75,-2.6875 0,-1.98437 -0.76563,-2.90625 -0.76562,-0.9375 -1.89062,-0.9375 -1.07813,0 -1.8125,0.89063 -0.73438,0.89062 -0.73438,2.8125 z m 15.61011,4.82812 v -1.42187 q -1.125,1.64062 -3.0625,1.64062 -0.85937,0 -1.60937,-0.32812 -0.73438,-0.32813 -1.09375,-0.82813 -0.35938,-0.5 -0.5,-1.21875 -0.10938,-0.46875 -0.10938,-1.53125 v -5.98437 h 1.64063 v 5.35937 q 0,1.28125 0.10937,1.73438 0.15625,0.64062 0.65625,1.01562 0.5,0.375 1.23438,0.375 0.73437,0 1.375,-0.375 0.65625,-0.39062 0.92187,-1.03125 0.26563,-0.65625 0.26563,-1.89062 v -5.1875 h 1.64062 v 9.67187 z m 9.21527,0 v -9.67187 h 1.46875 v 1.46875 q 0.5625,-1.03125 1.03125,-1.35938 0.48438,-0.32812 1.0625,-0.32812 0.82813,0 1.6875,0.53125 l -0.5625,1.51562 q -0.60937,-0.35937 -1.20312,-0.35937 -0.54688,0 -0.96875,0.32812 -0.42188,0.32813 -0.60938,0.89063 -0.28125,0.875 -0.28125,1.92187 v 5.0625 z m 12.54077,-1.1875 q -0.92187,0.76563 -1.76562,1.09375 -0.82813,0.3125 -1.79688,0.3125 -1.59375,0 -2.45312,-0.78125 -0.85938,-0.78125 -0.85938,-1.98437 0,-0.71875 0.32813,-1.29688 0.32812,-0.59375 0.84375,-0.9375 0.53125,-0.35937 1.1875,-0.54687 0.46875,-0.125 1.45312,-0.25 1.98438,-0.23438 2.92188,-0.5625 0.0156,-0.34375 0.0156,-0.42188 0,-1 -0.46875,-1.42187 -0.625,-0.54688 -1.875,-0.54688 -1.15625,0 -1.70312,0.40625 -0.54688,0.40625 -0.8125,1.42188 l -1.60938,-0.21875 q 0.21875,-1.01563 0.71875,-1.64063 0.5,-0.64062 1.45313,-0.98437 0.95312,-0.34375 2.1875,-0.34375 1.25,0 2.01562,0.29687 0.78125,0.28125 1.14063,0.73438 0.375,0.4375 0.51562,1.10937 0.0781,0.42188 0.0781,1.51563 v 2.1875 q 0,2.28125 0.10937,2.89062 0.10938,0.59375 0.40625,1.15625 h -1.70312 q -0.26563,-0.51562 -0.32813,-1.1875 z m -0.14062,-3.67187 q -0.89063,0.375 -2.67188,0.625 -1.01562,0.14062 -1.4375,0.32812 -0.42187,0.1875 -0.65625,0.53125 -0.21875,0.34375 -0.21875,0.78125 0,0.65625 0.5,1.09375 0.5,0.4375 1.45313,0.4375 0.9375,0 1.67187,-0.40625 0.75,-0.42187 1.09375,-1.14062 0.26563,-0.5625 0.26563,-1.64063 z m 4.59448,4.85937 v -8.40625 h -1.45312 v -1.26562 h 1.45312 v -1.03125 q 0,-0.96875 0.17188,-1.45313 0.23437,-0.64062 0.82812,-1.03125 0.59375,-0.39062 1.67188,-0.39062 0.6875,0 1.53125,0.15625 l -0.25,1.4375 q -0.5,-0.0937 -0.95313,-0.0937 -0.75,0 -1.0625,0.32812 -0.3125,0.3125 -0.3125,1.1875 v 0.89063 h 1.89063 v 1.26562 h -1.89063 v 8.40625 z m 4.77704,0 v -9.67187 h 1.46875 v 1.46875 q 0.5625,-1.03125 1.03125,-1.35938 0.48437,-0.32812 1.0625,-0.32812 0.82812,0 1.6875,0.53125 l -0.5625,1.51562 q -0.60938,-0.35937 -1.20313,-0.35937 -0.54687,0 -0.96875,0.32812 -0.42187,0.32813 -0.60937,0.89063 -0.28125,0.875 -0.28125,1.92187 v 5.0625 z m 12.54083,-1.1875 q -0.92187,0.76563 -1.76562,1.09375 -0.82813,0.3125 -1.79688,0.3125 -1.59375,0 -2.45312,-0.78125 -0.85938,-0.78125 -0.85938,-1.98437 0,-0.71875 0.32813,-1.29688 0.32812,-0.59375 0.84375,-0.9375 0.53125,-0.35937 1.1875,-0.54687 0.46875,-0.125 1.45312,-0.25 1.98438,-0.23438 2.92188,-0.5625 0.0156,-0.34375 0.0156,-0.42188 0,-1 -0.46875,-1.42187 -0.625,-0.54688 -1.875,-0.54688 -1.15625,0 -1.70312,0.40625 -0.54688,0.40625 -0.8125,1.42188 l -1.60938,-0.21875 q 0.21875,-1.01563 0.71875,-1.64063 0.5,-0.64062 1.45313,-0.98437 0.95312,-0.34375 2.1875,-0.34375 1.25,0 2.01562,0.29687 0.78125,0.28125 1.14063,0.73438 0.375,0.4375 0.51562,1.10937 0.0781,0.42188 0.0781,1.51563 v 2.1875 q 0,2.28125 0.10937,2.89062 0.10938,0.59375 0.40625,1.15625 h -1.70312 q -0.26563,-0.51562 -0.32813,-1.1875 z m -0.14062,-3.67187 q -0.89063,0.375 -2.67188,0.625 -1.01562,0.14062 -1.4375,0.32812 -0.42187,0.1875 -0.65625,0.53125 -0.21875,0.34375 -0.21875,0.78125 0,0.65625 0.5,1.09375 0.5,0.4375 1.45313,0.4375 0.9375,0 1.67187,-0.40625 0.75,-0.42187 1.09375,-1.14062 0.26563,-0.5625 0.26563,-1.64063 z m 4.76629,4.85937 v -9.67187 h 1.64063 v 9.67187 z m 0.96875,-12.42187 -1.03125,1.54687 h -1.875 l 1.96875,-2.54687 h 1.73438 l 2.0625,2.54687 h -1.85938 z m 9.9646,8.875 1.60938,0.21875 q -0.26563,1.65625 -1.35938,2.60937 -1.07812,0.9375 -2.67187,0.9375 -1.98438,0 -3.1875,-1.29687 -1.20313,-1.29688 -1.20313,-3.71875 0,-1.57813 0.51563,-2.75 0.51562,-1.17188 1.57812,-1.75 1.0625,-0.59375 2.3125,-0.59375 1.57813,0 2.57813,0.79687 1,0.79688 1.28125,2.26563 l -1.59375,0.23437 q -0.23438,-0.96875 -0.8125,-1.45312 -0.57813,-0.5 -1.39063,-0.5 -1.23437,0 -2.01562,0.89062 -0.78125,0.89063 -0.78125,2.8125 0,1.95313 0.75,2.84375 0.75,0.875 1.95312,0.875 0.96875,0 1.60938,-0.59375 0.65625,-0.59375 0.82812,-1.82812 z m 3.01563,3.54687 v -13.35937 h 1.64062 v 4.79687 q 1.14063,-1.32812 2.89063,-1.32812 1.07812,0 1.85937,0.42187 0.79688,0.42188 1.14063,1.17188 0.34375,0.75 0.34375,2.17187 v 6.125 h -1.64063 v -6.125 q 0,-1.23437 -0.53125,-1.79687 -0.53125,-0.5625 -1.51562,-0.5625 -0.71875,0 -1.35938,0.39062 -0.64062,0.375 -0.92187,1.01563 -0.26563,0.64062 -0.26563,1.78125 v 5.29687 z m 10.37567,-11.46875 v -1.89062 h 1.64062 v 1.89062 z m 0,11.46875 v -9.67187 h 1.64062 v 9.67187 z m 3.48859,-2.89062 1.625,-0.25 q 0.125,0.96875 0.75,1.5 0.625,0.51562 1.75,0.51562 1.125,0 1.67187,-0.45312 0.54688,-0.46875 0.54688,-1.09375 0,-0.54688 -0.48438,-0.875 -0.32812,-0.21875 -1.67187,-0.54688 -1.8125,-0.46875 -2.51563,-0.79687 -0.6875,-0.32813 -1.04687,-0.90625 -0.35938,-0.59375 -0.35938,-1.3125 0,-0.64063 0.29688,-1.1875 0.29687,-0.5625 0.8125,-0.92188 0.375,-0.28125 1.03125,-0.46875 0.67187,-0.20312 1.42187,-0.20312 1.14063,0 2,0.32812 0.85938,0.32813 1.26563,0.89063 0.42187,0.5625 0.57812,1.5 l -1.60937,0.21875 q -0.10938,-0.75 -0.64063,-1.17188 -0.51562,-0.42187 -1.46875,-0.42187 -1.14062,0 -1.625,0.375 -0.46875,0.375 -0.46875,0.875 0,0.3125 0.1875,0.57812 0.20313,0.26563 0.64063,0.4375 0.23437,0.0937 1.4375,0.42188 1.75,0.45312 2.4375,0.75 0.6875,0.29687 1.07812,0.85937 0.39063,0.5625 0.39063,1.40625 0,0.82813 -0.48438,1.54688 -0.46875,0.71875 -1.375,1.125 -0.90625,0.39062 -2.04687,0.39062 -1.875,0 -2.875,-0.78125 -0.98438,-0.78125 -1.25,-2.32812 z m 9.32812,0 1.625,-0.25 q 0.125,0.96875 0.75,1.5 0.625,0.51562 1.75,0.51562 1.125,0 1.67188,-0.45312 0.54687,-0.46875 0.54687,-1.09375 0,-0.54688 -0.48437,-0.875 -0.32813,-0.21875 -1.67188,-0.54688 -1.8125,-0.46875 -2.51562,-0.79687 -0.6875,-0.32813 -1.04688,-0.90625 -0.35937,-0.59375 -0.35937,-1.3125 0,-0.64063 0.29687,-1.1875 0.29688,-0.5625 0.8125,-0.92188 0.375,-0.28125 1.03125,-0.46875 0.67188,-0.20312 1.42188,-0.20312 1.14062,0 2,0.32812 0.85937,0.32813 1.26562,0.89063 0.42188,0.5625 0.57813,1.5 l -1.60938,0.21875 q -0.10937,-0.75 -0.64062,-1.17188 -0.51563,-0.42187 -1.46875,-0.42187 -1.14063,0 -1.625,0.375 -0.46875,0.375 -0.46875,0.875 0,0.3125 0.1875,0.57812 0.20312,0.26563 0.64062,0.4375 0.23438,0.0937 1.4375,0.42188 1.75,0.45312 2.4375,0.75 0.6875,0.29687 1.07813,0.85937 0.39062,0.5625 0.39062,1.40625 0,0.82813 -0.48437,1.54688 -0.46875,0.71875 -1.375,1.125 -0.90625,0.39062 -2.04688,0.39062 -1.875,0 -2.875,-0.78125 -0.98437,-0.78125 -1.25,-2.32812 z m 16.60938,-0.21875 1.6875,0.20312 q -0.40625,1.48438 -1.48438,2.3125 -1.07812,0.8125 -2.76562,0.8125 -2.125,0 -3.375,-1.29687 -1.23438,-1.3125 -1.23438,-3.67188 0,-2.45312 1.25,-3.79687 1.26563,-1.34375 3.26563,-1.34375 1.9375,0 3.15625,1.32812 1.23437,1.3125 1.23437,3.70313 0,0.15625 0,0.4375 h -7.21875 q 0.0937,1.59375 0.90625,2.45312 0.8125,0.84375 2.01563,0.84375 0.90625,0 1.54687,-0.46875 0.64063,-0.48437 1.01563,-1.51562 z m -5.39063,-2.65625 h 5.40625 q -0.10937,-1.21875 -0.625,-1.82813 -0.78125,-0.95312 -2.03125,-0.95312 -1.125,0 -1.90625,0.76562 -0.76562,0.75 -0.84375,2.01563 z m 9.14136,5.76562 v -9.67187 h 1.46875 v 1.35937 q 0.45312,-0.71875 1.20312,-1.14062 0.76563,-0.4375 1.71875,-0.4375 1.07813,0 1.76563,0.45312 0.6875,0.4375 0.96875,1.23438 1.15625,-1.6875 2.98437,-1.6875 1.45313,0 2.21875,0.79687 0.78125,0.79688 0.78125,2.45313 v 6.64062 h -1.64062 v -6.09375 q 0,-0.98437 -0.15625,-1.40625 -0.15625,-0.4375 -0.57813,-0.70312 -0.42187,-0.26563 -0.98437,-0.26563 -1.01563,0 -1.6875,0.6875 -0.67188,0.67188 -0.67188,2.15625 v 5.625 h -1.64062 v -6.28125 q 0,-1.09375 -0.40625,-1.64062 -0.40625,-0.54688 -1.3125,-0.54688 -0.6875,0 -1.28125,0.35938 -0.59375,0.35937 -0.85938,1.0625 -0.25,0.70312 -0.25,2.03125 v 5.01562 z m 22.16577,-3.10937 1.6875,0.20312 q -0.40625,1.48438 -1.48438,2.3125 -1.07812,0.8125 -2.76562,0.8125 -2.125,0 -3.375,-1.29687 -1.23438,-1.3125 -1.23438,-3.67188 0,-2.45312 1.25,-3.79687 1.26563,-1.34375 3.26563,-1.34375 1.9375,0 3.15625,1.32812 1.23437,1.3125 1.23437,3.70313 0,0.15625 0,0.4375 h -7.21875 q 0.0937,1.59375 0.90625,2.45312 0.8125,0.84375 2.01563,0.84375 0.90625,0 1.54687,-0.46875 0.64063,-0.48437 1.01563,-1.51562 z m -5.39063,-2.65625 h 5.40625 q -0.10937,-1.21875 -0.625,-1.82813 -0.78125,-0.95312 -2.03125,-0.95312 -1.125,0 -1.90625,0.76562 -0.76562,0.75 -0.84375,2.01563 z m 9.14136,5.76562 v -9.67187 h 1.46875 v 1.375 q 1.0625,-1.59375 3.07813,-1.59375 0.875,0 1.60937,0.3125 0.73438,0.3125 1.09375,0.82812 0.375,0.5 0.51563,1.20313 0.0937,0.45312 0.0937,1.59375 v 5.95312 h -1.64063 v -5.89062 q 0,-1 -0.20312,-1.48438 -0.1875,-0.5 -0.67188,-0.79687 -0.48437,-0.29688 -1.14062,-0.29688 -1.04688,0 -1.8125,0.67188 -0.75,0.65625 -0.75,2.51562 v 5.28125 z m 13.95386,-1.46875 0.23437,1.45313 q -0.6875,0.14062 -1.23437,0.14062 -0.89063,0 -1.39063,-0.28125 -0.48437,-0.28125 -0.6875,-0.73437 -0.20312,-0.46875 -0.20312,-1.9375 v -5.57813 h -1.20313 v -1.26562 h 1.20313 v -2.39063 l 1.625,-0.98437 v 3.375 h 1.65625 v 1.26562 h -1.65625 v 5.67188 q 0,0.6875 0.0781,0.89062 0.0937,0.20313 0.28125,0.32813 0.20313,0.10937 0.57813,0.10937 0.26562,0 0.71875,-0.0625 z"
       id="path89"
       inkscape:connector-curvature="0"
       style="fill:#000000;fill-rule:nonzero" />
    <path
       d="m 237.59607,265.0897 192.34647,-73.10237 14.92914,39.27559 -192.34647,73.10236 z"
       id="path91"
       inkscape:connector-curvature="0"
       style="fill:#000000;fill-opacity:0;fill-rule:evenodd" />
    <path
       d="m 255.90984,286.92807 -0.47189,-1.24146 3.23973,-8.80337 q -0.95639,0.43036 -1.70127,0.71344 l -3.68064,1.39886 -0.4719,-1.24145 7.39049,-2.80881 0.38306,1.00778 -2.72568,7.60508 -0.53507,1.40686 q 0.99466,-0.46161 1.90021,-0.80576 l 4.17725,-1.58758 0.49963,1.31448 z m 7.24687,-7.936 q -0.95489,-2.51212 -0.0226,-4.23713 0.7854,-1.45184 2.46506,-2.09021 1.86953,-0.71054 3.51892,0.0667 1.64386,0.7626 2.46551,2.92422 0.66065,1.73804 0.51792,2.94565 -0.14829,1.19302 -0.9451,2.13104 -0.78223,0.93247 -1.9653,1.38211 -1.89875,0.72162 -3.52799,-0.0466 -1.63479,-0.78277 -2.50644,-3.07583 z m 1.57743,-0.59949 q 0.66064,1.73804 1.73864,2.33127 1.08707,0.57306 2.24091,0.13455 1.13925,-0.43299 1.5712,-1.58335 0.42639,-1.165 -0.25092,-2.94686 -0.63846,-1.67963 -1.72549,-2.25269 -1.08704,-0.57306 -2.22629,-0.14011 -1.15387,0.43854 -1.58582,1.58893 -0.42288,1.13019 0.23777,2.86826 z m 10.4121,1.22458 -3.43649,-9.04077 1.37293,-0.52179 0.48855,1.28527 q 0.42691,-1.86721 2.31104,-2.58328 0.81793,-0.31085 1.61545,-0.27966 0.79748,0.0312 1.31661,0.38553 0.5282,0.33416 0.90949,0.94143 0.24863,0.39026 0.6539,1.45646 l 2.1152,5.56466 -1.5336,0.58286 -2.09298,-5.50626 q -0.35532,-0.93475 -0.71729,-1.31534 -0.35293,-0.40075 -0.91119,-0.50619 -0.55826,-0.10541 -1.17169,0.12771 -0.97858,0.37192 -1.45554,1.27195 -0.46793,0.87988 0.19275,2.61795 l 1.87646,4.93661 z m 14.7869,-8.9462 1.6496,-0.40964 q 0.14767,1.53183 -0.56589,2.68894 -0.71912,1.14251 -2.29651,1.74203 -1.98639,0.75491 -3.61563,-0.0132 -1.62021,-0.78833 -2.45853,-2.99378 -0.87161,-2.29303 -0.1806,-3.99319 0.70563,-1.70569 2.57517,-2.41623 1.81109,-0.68833 3.42224,0.12018 1.62021,0.78833 2.4696,3.02295 0.0555,0.14605 0.15546,0.40896 l -6.74784,2.56455 q 0.6539,1.45645 1.71875,1.9711 1.05927,0.50006 2.18393,0.0726 0.84711,-0.32196 1.27939,-0.98773 0.42676,-0.68036 0.41086,-1.77753 z m -5.98276,-0.56784 5.05359,-1.92066 q -0.53528,-1.10034 -1.23379,-1.48678 -1.06894,-0.61337 -2.2374,-0.16931 -1.05161,0.39969 -1.50986,1.39288 -0.44919,0.97308 -0.0725,2.18387 z m 8.9531,-0.32703 1.43017,-0.811 q 0.46106,0.86114 1.23404,1.13568 0.76743,0.25995 1.81903,-0.13974 1.05164,-0.39966 1.40183,-1.01752 0.34463,-0.63244 0.12259,-1.21664 -0.19431,-0.5112 -0.76367,-0.64585 -0.38447,-0.0879 -1.75715,0.0828 -1.86081,0.20575 -2.63464,0.14883 -0.75925,-0.0625 -1.3006,-0.47519 -0.54687,-0.42733 -0.80227,-1.09918 -0.2276,-0.59885 -0.14441,-1.21548 0.0776,-0.63126 0.43194,-1.15039 0.25061,-0.39612 0.79743,-0.80451 0.55587,-0.42859 1.25695,-0.69504 1.06623,-0.40521 1.98612,-0.40381 0.91989,0.001 1.49951,0.38291 0.59421,0.37591 1.07337,1.19672 l -1.42667,0.77624 q -0.36871,-0.6622 -1.0152,-0.86783 -0.6319,-0.21115 -1.52283,0.12744 -1.06622,0.40522 -1.38577,0.92783 -0.30493,0.51706 -0.12726,0.98444 0.11103,0.29211 0.38068,0.47381 0.28424,0.17612 0.75427,0.18134 0.25241,0.004 1.49362,-0.11634 1.79685,-0.19815 2.54499,-0.16488 0.74813,0.0333 1.31314,0.42029 0.565,0.38702 0.86477,1.17568 0.29425,0.77411 0.0969,1.61805 -0.1828,0.83838 -0.88559,1.54007 -0.70835,0.6871 -1.77457,1.09231 -1.75269,0.66611 -2.96503,0.29111 -1.19775,-0.38055 -1.99566,-1.73212 z m 21.06219,-4.91247 -0.43301,-1.13922 q -0.3364,1.66565 -2.01605,2.30401 -1.08081,0.4108 -2.21399,0.15613 -1.13318,-0.25467 -2.03504,-1.13214 -0.90188,-0.87747 -1.42929,-2.26499 -0.51633,-1.3583 -0.47992,-2.62579 0.0309,-1.28207 0.69974,-2.20492 0.68347,-0.92838 1.80814,-1.35581 0.8179,-0.31085 1.57919,-0.199 0.77035,0.0917 1.37567,0.49679 l -1.70438,-4.48385 1.5336,-0.58286 4.74671,12.48767 z m -6.54996,-2.67569 q 0.66065,1.73803 1.71848,2.3222 1.05783,0.58417 2.05103,0.20673 1.00781,-0.38303 1.39798,-1.46738 0.38461,-1.09897 -0.25382,-2.77859 -0.70508,-1.85489 -1.74829,-2.44461 -1.0488,-0.60434 -2.1004,-0.20466 -1.00782,0.383 -1.37781,1.47641 -0.37003,1.09342 0.31283,2.8899 z m 15.47998,-4.04459 1.6496,-0.40961 q 0.14765,1.53183 -0.56592,2.68894 -0.71908,1.14252 -2.2965,1.742 -1.98639,0.75495 -3.61564,-0.0132 -1.62017,-0.78833 -2.45849,-2.99375 -0.87161,-2.29306 -0.1806,-3.99319 0.70559,-1.7057 2.57513,-2.41623 1.81113,-0.68832 3.42224,0.12016 1.62021,0.78833 2.46964,3.02297 0.0555,0.14606 0.15542,0.40896 l -6.74783,2.56455 q 0.6539,1.45645 1.71875,1.9711 1.05929,0.50003 2.18393,0.0726 0.84714,-0.32196 1.27942,-0.9877 0.42672,-0.68036 0.41085,-1.77756 z m -5.98275,-0.56781 5.05356,-1.92065 q -0.53528,-1.10038 -1.23377,-1.4868 -1.06894,-0.61338 -2.2374,-0.1693 -1.0516,0.39967 -1.50988,1.39288 -0.44919,0.97306 -0.0725,2.18387 z m 15.43875,0.30039 -3.43649,-9.04078 1.37292,-0.5218 0.483,1.27068 q 0.16818,-0.83283 0.71936,-1.49363 0.56024,-0.68095 1.4512,-1.01956 1.00779,-0.38301 1.81144,-0.2037 0.79809,0.16472 1.34414,0.80967 0.48123,-1.98816 2.1901,-2.63763 1.35833,-0.51624 2.35717,-0.0434 1.0134,0.46733 1.6019,2.01552 l 2.35947,6.20731 -1.5336,0.58285 -2.16516,-5.69612 q -0.34976,-0.92015 -0.64572,-1.25899 -0.30152,-0.35343 -0.79023,-0.45185 -0.48873,-0.0984 -1.01455,0.10142 -0.94937,0.36081 -1.33313,1.24214 -0.38935,0.86673 0.13809,2.25425 l 1.9986,5.25796 -1.5336,0.58286 -2.23178,-5.87139 q -0.38862,-1.02238 -0.96268,-1.38925 -0.57407,-0.36687 -1.42117,-0.0449 -0.64267,0.24425 -1.07001,0.79111 -0.42731,0.54686 -0.42578,1.29848 0.0161,0.74606 0.48803,1.98752 l 1.78208,4.68835 z m 12.23639,-9.83228 q -0.9549,-2.51215 -0.0226,-4.23714 0.7854,-1.45185 2.46506,-2.09021 1.86954,-0.71052 3.51895,0.0667 1.64386,0.76262 2.46549,2.92422 0.66067,1.73806 0.51794,2.94567 -0.14831,1.19301 -0.94513,2.13103 -0.78222,0.93248 -1.9653,1.38211 -1.89874,0.72163 -3.52798,-0.0465 -1.6348,-0.78279 -2.50641,-3.07584 z m 1.57739,-0.59952 q 0.66067,1.73806 1.73865,2.33129 1.08706,0.57307 2.2409,0.13453 1.13925,-0.43296 1.5712,-1.58334 0.42639,-1.16498 -0.25092,-2.94685 -0.63842,-1.67963 -1.72549,-2.25269 -1.08704,-0.57307 -2.22629,-0.14009 -1.15384,0.43852 -1.58578,1.5889 -0.42291,1.13022 0.23773,2.86825 z m 16.32742,-1.02354 -0.50519,-1.3291 q -0.46868,1.93324 -2.27978,2.62156 -0.80331,0.30532 -1.62097,0.26505 -0.80307,-0.0458 -1.31665,-0.38553 -0.51358,-0.33971 -0.90042,-0.96159 -0.2688,-0.39931 -0.64631,-1.39247 l -2.12631,-5.59389 1.5336,-0.58286 1.90424,5.00968 q 0.45523,1.19764 0.71847,1.58233 0.37369,0.54332 0.97431,0.71622 0.60061,0.1729 1.28711,-0.088 0.68646,-0.26089 1.15204,-0.83902 0.47467,-0.59828 0.49533,-1.29145 0.0151,-0.70781 -0.42347,-1.86164 l -1.84317,-4.84901 1.5336,-0.58286 3.43653,9.04079 z m 6.29575,-2.39273 -6.88345,-7.73075 1.62124,-0.61616 4.00223,4.68034 q 0.63983,0.75977 1.27264,1.58904 -0.0822,-0.78783 -0.0799,-1.92533 l -0.0976,-6.28134 1.57743,-0.5995 0.0188,10.33969 z m 11.29547,-7.61928 1.6496,-0.40964 q 0.14767,1.53185 -0.56589,2.68895 -0.71912,1.1425 -2.29654,1.74202 -1.98636,0.75493 -3.61563,-0.0132 -1.62018,-0.78833 -2.4585,-2.99376 -0.87161,-2.29305 -0.1806,-3.9932 0.70563,-1.7057 2.57513,-2.41623 1.81113,-0.68832 3.42228,0.12017 1.62017,0.78833 2.4696,3.02296 0.0555,0.14606 0.15546,0.40895 l -6.74787,2.56456 q 0.65393,1.45645 1.71875,1.9711 1.0593,0.50005 2.18393,0.0726 0.84714,-0.32196 1.27942,-0.98772 0.42673,-0.68036 0.41086,-1.77754 z m -5.98276,-0.56784 5.05359,-1.92064 q -0.53528,-1.10036 -1.23379,-1.4868 -1.06894,-0.61337 -2.2374,-0.1693 -1.05161,0.39968 -1.50986,1.39289 -0.44922,0.97306 -0.0725,2.18385 z m 10.5936,2.14183 -3.43652,-9.04077 1.37295,-0.52179 0.483,1.27067 q 0.16819,-0.83282 0.71936,-1.49362 0.56024,-0.68095 1.45117,-1.01956 1.00782,-0.38303 1.81147,-0.2037 0.79809,0.1647 1.34414,0.80966 0.48124,-1.98816 2.1901,-2.63762 1.35834,-0.51625 2.35715,-0.0434 1.01342,0.46733 1.60189,2.01551 l 2.3595,6.20732 -1.5336,0.58285 -2.16519,-5.69613 q -0.34973,-0.92014 -0.64569,-1.25898 -0.30152,-0.35344 -0.79025,-0.45185 -0.48874,-0.0984 -1.01453,0.10142 -0.94937,0.36081 -1.33316,1.24214 -0.38931,0.86673 0.13809,2.25424 l 1.99863,5.25797 -1.5336,0.58285 -2.23178,-5.87139 q -0.38865,-1.02239 -0.96268,-1.38924 -0.57407,-0.36687 -1.4212,-0.0449 -0.64264,0.24423 -1.06998,0.79109 -0.42734,0.54688 -0.42581,1.29848 0.0161,0.74606 0.48803,1.98753 l 1.78211,4.68834 z m 19.61505,-10.78117 1.6496,-0.40964 q 0.14764,1.53184 -0.56589,2.68895 -0.71912,1.1425 -2.29654,1.742 -1.98636,0.75495 -3.61563,-0.0132 -1.62018,-0.78833 -2.4585,-2.99376 -0.87161,-2.29306 -0.1806,-3.99319 0.70563,-1.7057 2.57513,-2.41623 1.81113,-0.68832 3.42228,0.12016 1.62017,0.78833 2.4696,3.02297 0.0555,0.14605 0.15546,0.40895 l -6.74787,2.56456 q 0.6539,1.45645 1.71875,1.9711 1.0593,0.50003 2.18393,0.0726 0.84714,-0.32196 1.27942,-0.98771 0.42673,-0.68036 0.41086,-1.77754 z m -5.98276,-0.56784 5.05359,-1.92064 q -0.53528,-1.10038 -1.23379,-1.48681 -1.06894,-0.61337 -2.2374,-0.16929 -1.05161,0.39967 -1.50986,1.39288 -0.44922,0.97307 -0.0725,2.18386 z m 10.5936,2.14183 -3.43652,-9.04078 1.37295,-0.52179 0.48856,1.28528 q 0.42691,-1.86722 2.31103,-2.58329 0.81793,-0.31087 1.61542,-0.27965 0.79752,0.0312 1.31665,0.38551 0.5282,0.33415 0.90949,0.94144 0.24862,0.39026 0.6539,1.45645 l 2.1152,5.56468 -1.5336,0.58286 -2.09299,-5.50626 q -0.35531,-0.93475 -0.71731,-1.31535 -0.35291,-0.40076 -0.91117,-0.50618 -0.55825,-0.10543 -1.17169,0.12771 -0.97861,0.37192 -1.45556,1.27194 -0.4679,0.87989 0.19274,2.61792 l 1.8765,4.93665 z m 12.52173,-6.3302 0.73538,1.27504 q -0.59268,0.3757 -1.10388,0.56997 -0.83252,0.31641 -1.39984,0.23114 -0.55271,-0.0908 -0.9036,-0.44221 -0.35641,-0.366 -0.87826,-1.73891 l -1.98197,-5.21414 -1.12463,0.42743 -0.44971,-1.18305 1.12464,-0.42743 -0.8494,-2.23463 1.16922,-1.49745 1.19919,3.15478 1.54819,-0.58841 0.4497,1.18305 -1.54822,0.58841 2.01529,5.30177 q 0.24427,0.64264 0.38947,0.80476 0.15979,0.15656 0.37949,0.20679 0.22872,0.0301 0.57928,-0.10315 0.24829,-0.0944 0.64966,-0.31376 z"
       id="path93"
       inkscape:connector-curvature="0"
       style="fill:#000000;fill-rule:nonzero" />
    <path
       d="m 538.1023,194.52742 193.63782,69.6378 -14.20477,39.52756 -193.63776,-69.6378 z"
       id="path95"
       inkscape:connector-curvature="0"
       style="fill:#000000;fill-opacity:0;fill-rule:evenodd" />
    <path
       d="m 537.8054,223.02855 0.44916,-1.24986 8.18677,-4.57773 q -1.00623,-0.29546 -1.75611,-0.56513 l -3.7052,-1.3325 0.44916,-1.24986 7.43976,2.67555 -0.36457,1.0146 -7.01696,4.00215 -1.32148,0.72031 q 1.05567,0.29662 1.96723,0.62445 l 4.20514,1.51227 -0.47559,1.32339 z m 10.66577,-1.31172 q 0.90894,-2.52915 2.73902,-3.23258 1.54083,-0.59158 3.23168,0.0165 1.88202,0.67682 2.62909,2.34028 0.75238,1.64876 -0.0297,3.82502 -0.62884,1.74981 -1.52277,2.57406 -0.88861,0.80954 -2.10394,1.00345 -1.20062,0.19921 -2.39154,-0.22909 -1.91144,-0.6874 -2.64911,-2.33088 -0.73236,-1.65817 0.0972,-3.96676 z m 1.58795,0.57107 q -0.62878,1.74982 -0.19598,2.90175 0.45276,1.14252 1.61432,1.56024 1.14685,0.41243 2.2232,-0.18016 1.08161,-0.6073 1.72626,-2.40123 0.60767,-1.69101 0.15491,-2.83352 -0.45282,-1.14252 -1.59967,-1.55495 -1.16156,-0.41772 -2.23786,0.17487 -1.05633,0.58319 -1.68518,2.333 z m 7.11097,7.70475 3.27087,-9.10199 1.38208,0.49704 -0.46497,1.29399 q 1.53876,-1.14029 3.43549,-0.45818 0.82336,0.29611 1.40875,0.83872 0.58533,0.5426 0.74915,1.14946 0.18377,0.59744 0.0783,1.30673 -0.065,0.45816 -0.45075,1.53157 l -2.01331,5.60235 -1.54382,-0.5552 1.99213,-5.54354 q 0.33819,-0.94108 0.31085,-1.46565 -0.007,-0.53399 -0.36273,-0.97729 -0.35541,-0.4433 -0.9729,-0.66538 -0.98511,-0.35428 -1.9328,0.0189 -0.92768,0.36378 -1.55652,2.1136 l -1.78601,4.97006 z m 17.04919,2.82705 1.51923,0.76224 q -0.88428,1.25943 -2.17884,1.6739 -1.2893,0.39979 -2.87726,-0.17127 -1.99963,-0.71914 -2.7373,-2.36261 -0.71765,-1.65288 0.0803,-3.87325 0.82965,-2.30858 2.46033,-3.15015 1.64538,-0.83627 3.5274,-0.15944 1.82318,0.65567 2.52082,2.31798 0.71771,1.65288 -0.0908,3.90265 -0.0529,0.14705 -0.14795,0.41173 l -6.79285,-2.4429 q -0.45081,1.53157 0.0231,2.61526 0.47925,1.06899 1.61139,1.47614 0.85278,0.30668 1.61414,0.0824 0.7666,-0.23904 1.46826,-1.08263 z m -4.17426,-4.32397 5.08728,1.82953 q 0.30921,-1.18396 0.0301,-1.93192 -0.41278,-1.16134 -1.58905,-1.58436 -1.05865,-0.38071 -2.05273,0.0754 -0.97406,0.44672 -1.47559,1.61133 z m 7.01215,5.57704 1.61365,0.31465 q -0.20996,0.95397 0.19848,1.66542 0.41376,0.69675 1.47235,1.07747 1.05866,0.38071 1.72651,0.13934 0.67315,-0.25605 0.88452,-0.84423 0.18493,-0.51465 -0.15991,-0.98735 -0.23481,-0.31691 -1.38831,-1.08043 -1.547,-1.05451 -2.09766,-1.60125 -0.53601,-0.54144 -0.67865,-1.20712 -0.13739,-0.68039 0.10572,-1.35678 0.21661,-0.60289 0.68097,-1.01707 0.46954,-0.4289 1.07629,-0.59259 0.448,-0.13778 1.12897,-0.0922 0.70092,0.0362 1.40667,0.29002 1.07331,0.386 1.771,0.98561 0.69769,0.59961 0.88977,1.26645 0.20673,0.67212 0.0367,1.60726 l -1.58844,-0.33876 q 0.15076,-0.74283 -0.20648,-1.31963 -0.34253,-0.5715 -1.23944,-0.89406 -1.0733,-0.386 -1.65594,-0.19701 -0.56787,0.19428 -0.737,0.66481 -0.10565,0.29409 -0.019,0.60752 0.10126,0.31871 0.45484,0.62851 0.18884,0.16754 1.21002,0.88348 1.49353,1.01865 2.04004,1.53069 0.54657,0.51204 0.72388,1.1736 0.17736,0.66154 -0.10798,1.45558 -0.28009,0.77933 -0.97894,1.29181 -0.6842,0.51776 -1.67431,0.5934 -0.98493,0.0609 -2.05823,-0.32508 -1.76441,-0.63452 -2.44116,-1.70814 -0.66211,-1.06835 -0.38892,-2.61397 z m 19.19116,9.97356 0.41217,-1.14695 q -1.33893,1.04613 -3.02978,0.43804 -1.08808,-0.39128 -1.78302,-1.32199 -0.69495,-0.93071 -0.80909,-2.18392 -0.11413,-1.2532 0.38782,-2.65011 0.49146,-1.36751 1.34357,-2.30641 0.85742,-0.95362 1.96564,-1.21924 1.12298,-0.26035 2.25512,0.1468 0.82337,0.29611 1.3288,0.87639 0.52539,0.57086 0.72156,1.27239 l 1.62225,-4.51423 1.54382,0.5552 -4.518,12.57222 z m -3.23395,-6.29386 q -0.62878,1.74982 -0.20544,2.88176 0.4234,1.13193 1.42322,1.4915 1.01452,0.36484 2.01617,-0.20478 1.00696,-0.58436 1.61463,-2.27535 0.67108,-1.86745 0.26245,-2.99411 -0.40345,-1.14136 -1.46204,-1.52206 -1.01453,-0.36486 -2.00677,0.22477 -0.99225,0.58963 -1.64222,2.39827 z m 14.38721,7.00057 1.51923,0.76222 q -0.88428,1.25943 -2.1789,1.67392 -1.28924,0.39976 -2.87719,-0.1713 -1.99964,-0.71913 -2.73731,-2.36259 -0.71765,-1.65289 0.0803,-3.87325 0.82959,-2.30859 2.46033,-3.15014 1.64539,-0.83628 3.52734,-0.15946 1.82318,0.65567 2.52088,2.31798 0.71771,1.65289 -0.0908,3.90265 -0.0529,0.14705 -0.14801,0.41173 l -6.79279,-2.4429 q -0.4508,1.53157 0.0231,2.61526 0.47925,1.069 1.61139,1.47615 0.85273,0.30669 1.61408,0.0823 0.76666,-0.23904 1.46832,-1.08262 z m -4.17425,-4.32399 5.08721,1.82953 q 0.30927,-1.18395 0.0302,-1.93192 -0.41285,-1.16135 -1.58905,-1.58435 -1.05866,-0.38072 -2.05274,0.0754 -0.97406,0.44672 -1.47558,1.61133 z m 11.5296,10.27351 3.27087,-9.10199 1.38208,0.49704 -0.46496,1.29399 q 1.53875,-1.14029 3.43548,-0.45817 0.82337,0.29609 1.40875,0.83871 0.58533,0.5426 0.74915,1.14946 0.18378,0.59744 0.0783,1.30673 -0.065,0.45815 -0.45075,1.53157 l -2.0133,5.60236 -1.54383,-0.55521 1.99213,-5.54353 q 0.3382,-0.94109 0.31085,-1.46565 -0.007,-0.534 -0.36273,-0.9773 -0.35541,-0.4433 -0.9729,-0.66539 -0.98511,-0.35426 -1.9328,0.0189 -0.92767,0.36379 -1.55652,2.11361 l -1.78601,4.97006 z m 10.82818,-1.25331 q 0.90888,-2.52914 2.73896,-3.23257 1.54089,-0.59159 3.23175,0.0165 1.88202,0.67682 2.62909,2.34029 0.75232,1.64875 -0.0297,3.82499 -0.62878,1.74982 -1.5227,2.57407 -0.88868,0.80954 -2.10401,1.00346 -1.20056,0.19919 -2.39154,-0.22909 -1.91137,-0.68741 -2.64905,-2.33087 -0.73236,-1.65819 0.0972,-3.96677 z m 1.58796,0.57106 q -0.62885,1.74982 -0.19605,2.90176 0.45282,1.14251 1.61438,1.56023 1.14685,0.41245 2.22314,-0.18016 1.08161,-0.6073 1.72632,-2.40123 0.60767,-1.69099 0.15485,-2.83351 -0.45276,-1.14252 -1.59961,-1.55495 -1.16156,-0.41774 -2.23792,0.17487 -1.05633,0.58317 -1.68511,2.33299 z m 13.06567,9.84627 0.48083,-1.33811 q -1.61346,1.16324 -3.43664,0.50757 -0.80866,-0.2908 -1.40344,-0.85342 -0.58008,-0.55731 -0.74915,-1.14945 -0.16907,-0.59216 -0.0584,-1.31616 0.0556,-0.47813 0.41492,-1.47803 l 2.02386,-5.63177 1.54383,0.55521 -1.81244,5.04359 q -0.43335,1.20575 -0.48365,1.66919 -0.0696,0.65578 0.27405,1.17787 0.34369,0.5221 1.03473,0.77063 0.69104,0.24854 1.42072,0.1124 0.74963,-0.14551 1.21618,-0.65851 0.47193,-0.52768 0.88935,-1.68933 l 1.75439,-4.88184 1.54382,0.55519 -3.27093,9.10201 z m 6.33771,2.27923 -0.19904,-10.34989 1.63208,0.58692 -0.005,6.15857 q -0.008,0.99332 -0.0671,2.03485 0.45007,-0.65176 1.19171,-1.51419 l 4.01172,-4.83383 1.58795,0.57108 -6.71143,7.86468 z m 13.53448,1.56305 1.51923,0.76221 q -0.88428,1.25946 -2.17884,1.67392 -1.2893,0.39978 -2.87725,-0.1713 -1.99958,-0.71911 -2.73725,-2.36257 -0.71771,-1.6529 0.0802,-3.87326 0.82965,-2.30857 2.46033,-3.15015 1.64539,-0.83626 3.5274,-0.15946 1.82319,0.65567 2.52088,2.318 0.71765,1.65289 -0.0908,3.90265 -0.0529,0.14706 -0.14795,0.41174 l -6.79285,-2.4429 q -0.45074,1.53155 0.0231,2.61526 0.47924,1.06897 1.61138,1.47614 0.85279,0.30667 1.61414,0.0823 0.7666,-0.23904 1.46826,-1.08261 z m -4.17425,-4.32397 5.08728,1.82953 q 0.30926,-1.18396 0.0301,-1.93192 -0.41278,-1.16134 -1.58905,-1.58438 -1.0586,-0.38071 -2.05268,0.0754 -0.97412,0.44672 -1.47564,1.61133 z m 12.99377,9.53811 q -1.1264,0.40854 -2.03137,0.4318 -0.88495,0.0138 -1.79651,-0.314 -1.4997,-0.53933 -2.04419,-1.5654 -0.54443,-1.02603 -0.13757,-2.15826 0.2431,-0.67639 0.74737,-1.10941 0.50952,-0.44772 1.11103,-0.59674 0.62139,-0.15841 1.30236,-0.11279 0.48334,0.041 1.45191,0.2565 1.94659,0.45096 2.93976,0.45941 0.13092,-0.3182 0.15734,-0.39172 0.3382,-0.94107 0.0398,-1.49671 -0.4032,-0.72616 -1.57947,-1.1492 -1.08801,-0.39126 -1.73999,-0.19403 -0.65204,0.19724 -1.24542,1.06314 l -1.44049,-0.75048 q 0.54932,-0.88175 1.2312,-1.30072 0.68713,-0.43369 1.70032,-0.43464 1.01312,-9.4e-4 2.17468,0.41678 1.17621,0.42301 1.79626,0.96149 0.64008,0.52905 0.82502,1.07712 0.20489,0.5386 0.10998,1.2185 -0.0692,0.42343 -0.43902,1.45276 l -0.73981,2.0586 q -0.77149,2.14685 -0.87463,2.75732 -0.0979,0.59576 -0.009,1.22559 l -1.60266,-0.57636 q -0.0756,-0.57513 0.0928,-1.22855 z m 1.10944,-3.50311 q -0.96491,0.0515 -2.72559,-0.31604 -1.00323,-0.21133 -1.46362,-0.17767 -0.46039,0.0337 -0.79724,0.27789 -0.32209,0.24945 -0.47004,0.66117 -0.22192,0.61758 0.10059,1.19851 0.32257,0.58093 1.21948,0.90347 0.88214,0.31727 1.71057,0.18348 0.84845,-0.14322 1.41498,-0.70328 0.44019,-0.43945 0.80481,-1.45407 z m 8.26721,8.13718 0.48083,-1.33811 q -1.61346,1.16324 -3.43664,0.50757 -0.80866,-0.2908 -1.40344,-0.85342 -0.58008,-0.55731 -0.74915,-1.14945 -0.16907,-0.59216 -0.0584,-1.31616 0.0556,-0.47815 0.41492,-1.47803 l 2.02386,-5.63177 1.54383,0.55521 -1.8125,5.04361 q -0.43329,1.20575 -0.48359,1.66919 -0.0696,0.65576 0.27405,1.17785 0.34369,0.52213 1.03473,0.77063 0.69104,0.24854 1.42072,0.1124 0.74963,-0.14551 1.21618,-0.65851 0.47193,-0.52768 0.88935,-1.68933 l 1.75439,-4.88184 1.54382,0.55521 -3.27093,9.10199 z m 7.67248,1.19839 -0.27087,1.44684 q -0.69452,-0.10031 -1.20911,-0.2854 -0.83807,-0.30139 -1.21344,-0.73526 -0.36071,-0.42862 -0.39862,-0.92377 -0.0326,-0.50988 0.46411,-1.89209 l 1.88648,-5.24945 -1.13214,-0.40713 0.42804,-1.19107 1.13214,0.40716 0.80847,-2.24978 1.862,-0.37644 -1.14136,3.17612 1.55853,0.56052 -0.42803,1.19104 -1.55854,-0.56049 -1.91815,5.33768 q -0.23254,0.64697 -0.22772,0.86459 0.0195,0.22287 0.15368,0.40396 0.15418,0.17166 0.50709,0.29859 0.24993,0.0899 0.69744,0.18438 z m 8.29944,1.24124 1.51923,0.76221 q -0.88428,1.25946 -2.17884,1.67392 -1.2893,0.39978 -2.87725,-0.17129 -1.99964,-0.71912 -2.73725,-2.36258 -0.71771,-1.6529 0.0802,-3.87326 0.82965,-2.30857 2.46033,-3.15015 1.64539,-0.83627 3.5274,-0.15945 1.82319,0.65567 2.52088,2.31799 0.71765,1.65289 -0.0908,3.90265 -0.0529,0.14703 -0.14795,0.41171 l -6.79285,-2.44287 q -0.45074,1.53155 0.0231,2.61526 0.47924,1.06897 1.61138,1.47614 0.85279,0.30667 1.61414,0.0823 0.7666,-0.23905 1.46826,-1.08262 z m -4.17425,-4.32397 5.08728,1.82953 q 0.3092,-1.18396 0.0301,-1.93192 -0.41278,-1.16134 -1.58905,-1.58438 -1.0586,-0.3807 -2.05268,0.0754 -0.97412,0.44669 -1.47564,1.61133 z m 3.3894,-4.21085 2.00812,-1.98434 2.02905,0.72968 -2.75806,1.71472 z"
       id="path97"
       inkscape:connector-curvature="0"
       style="fill:#000000;fill-rule:nonzero" />
  </g>
</svg>
